<svg xmlns="http://www.w3.org/2000/svg" viewBox="0 0 436 650"><defs><style>.cls-1{opacity:0.92;}</style></defs><g id="Camada_2" data-name="Camada 2"><g id="Camada_1-2" data-name="Camada 1"><g class="cls-1"><path d="M130,1.18c.7,1,.7,1.15.09,1.15a1.06,1.06,0,0,1-.88-.75c-.13-.52-.48-.52-1.66,0-1,.52-1.61.52-1.87.18-.66-.87-3.63-.7-3.89.23s-4,2.25-5.25,1.73c-.83-.35-.87-.4-.13-1.1,1.14-1.1.27-1.5-3.36-1.62-3.06-.05-4.06.64-2,1.45.79.29.66.35-.65.4-1.49.06-1.66-.05-1.4-1.09S109.09.6,108,.6c-.92,0-1.35.29-1.35.87s-.44.86-1.14.86a9,9,0,0,0-2.88.7c-1.27.52-1.79.52-2.19,0-.91-1.22-2.36-.81-2.88.75-.61,1.73-1.27,1.85-2.49.29s-5.15-2.26-5.68-1.16c-.22.46-.57.35-1.27-.46-1-1.16-3.75-2.14-3.75-1.33,0,.29-.4.64-.92.81s-.79.58-.61.92-.35.64-1.49.64-1.79-.29-1.79-.58-.17-.58-.44-.58-.43.35-.43.81c0,.81-2.32,1.45-5.68,1.5-.83.06-3.19.12-5.24.18s-5.16-.06-6.91-.18c-2.14-.23-3.27,0-3.49.41a3.17,3.17,0,0,1-2.06.86c-1.44.12-1.74,0-1.7-.8s-.35-1-2.18-1a75.83,75.83,0,0,0-8.57.23c-6.07.52-12.84.29-13.45-.52a2,2,0,0,1-.31-1c0-1.16-.87-1-1.31.29s-.65,1.32-4.8,1.27a60.15,60.15,0,0,1-6.78-.52c-3.23-.52-5.15,1.09-6,5-.44,2-.79,2.72-1.62,3-1.27.4-1.44,1.5-.26,1.5.43,0,1.13.63,1.48,1.38.61,1.16.66,2,.26,5a24,24,0,0,0-.17,4.68c.26,1,0,1.1-1.88,1.1s-2.36.23-3.36,1.85-1,1.9-.48,2.31a1.81,1.81,0,0,1,.7,1.27c0,1,1,1.5,2.84,1.5,1.44,0,1.44,0,1.22,2.31-.18,1.73,0,2.6.52,3.46.44.64.66,1.16.44,1.16s-.13.35.09.69a6.49,6.49,0,0,1-.05,4.45,10.58,10.58,0,0,0-.35,3.35,13.53,13.53,0,0,1-.61,4.1,8.47,8.47,0,0,0-.61,2.2c0,.8-2.49,1.55-3.23,1-.48-.41.3,1.09,1.35,2.6,1.18,1.67,0,5.66-1.44,4.91-.7-.35-.83.75-.17,1.27s.56,2.77-.09,3.64c-.39.52-.39,1,0,2a21.75,21.75,0,0,1,.39,5.26c-.09,3,.09,4.1.57,4.5.35.23.48.52.26.52s-.17.35.09.69A31,31,0,0,1,7.38,84.7c.83,3.35.88,3.75.22,6.52C7,94.29,6.29,95,6,93c-.18-1.61-1-1.44-1,.18,0,.69.09,2.25.13,3.41,0,1.73.22,2.19.87,2.19s1.36,1,1.36,2.48c0,.47-.18.41-.53,0a1.7,1.7,0,0,0-.87-.7c-.44,0-.39,12.13,0,14.33s1.36,2.31,1.36,0a7.64,7.64,0,0,1,.39-2.66c.52-1.1,2,2.48,2.4,5.72.57,5.14.4,13.4-.35,16.29a22.49,22.49,0,0,0-.7,4.5c0,1.27-.21,1.85-.87,2.08-1.09.41-1.14,1.1,0,1.85s1.18,5.89.3,13.69c-.35,3.12-.91,10.68-1.18,16.75-.52,10.28-.48,12,.44,24.84,1,13.57,1,14.09.35,30.55-.57,13.57-.61,22.41-.31,46.79.22,16.51.57,31.47.83,33.21a57.63,57.63,0,0,1,.44,5.83,6.76,6.76,0,0,0,.7,3.41c.87.92.87,4.39,0,4.85a1.41,1.41,0,0,0,.26,2.48c.88.29.88.58.66,7.34-.13,3.81-.57,9.07-1,11.61s-1,7.28-1.27,10.57c-.44,4-.92,6.64-1.57,8-.75,1.56-.88,2.25-.48,3.06s.26,2.31-.18,5.83a56.68,56.68,0,0,1-.92,5.72c-.13.46-.43,4.22-.61,8.37S4.24,395.5,4,398.45a48.51,48.51,0,0,0,0,8.08c.17,1.5.52,5,.79,7.74A34.14,34.14,0,0,0,7,424.38c2.06,5.89,3,10.34,3,13.86a28.69,28.69,0,0,0,.92,5.83,23.24,23.24,0,0,1,.87,6.19c-.35,17.38-.48,19.86-1.31,24-2.1,10.28-2.4,11.95-2.4,14a5.07,5.07,0,0,0,1.18,3.64c1.18,1.44,1.18,1.5,1.26,10.22,0,4.85.09,9.48.09,10.28a5.91,5.91,0,0,0,.61,2.37,2.49,2.49,0,0,1,.26,1.85,3,3,0,0,0,.31,1.91c1,1.44.65,26.68-.31,29.16-.52,1.33-.78,4.63-1.09,12.54-.39,11-.74,15.48-1.22,15.88-.18.18-1.36-.23-2.67-.86a13.54,13.54,0,0,0-4.45-1.1c-2,0-2.1.11-2.1,1.44,0,1.56-.13,1.5,7.21,1.68,2,.06,2,0,2,3.52,0,2.6,0,2.6-2.4,4.16-1.31.87-2.4,1.79-2.4,2.08,0,.63,2.23,4.56,4.11,7.22C9.7,596,9.79,596.39,9.7,600c-.09,2.19.09,4,.35,4.21.61.52.7,7.11,0,7.4a1.35,1.35,0,0,0-.09,2c.22.12.49,1.91.57,4,.13,2.95,0,4-.43,4.22A.93.93,0,0,0,9.79,623a1.21,1.21,0,0,1-.18,1.15c-.65.58-.52,2,.22,2s1.7,2.08,1.31,2.89,1.53,3.47,2.4,3.47c.61,0,.66.4.27,3.35-.49,3.92-.22,5.31,1,5.31a1.79,1.79,0,0,1,1.35,1.15c.57,1.39,2.15,2.31,4.37,2.6,3.85.52,4.85,1,5.25,2.37.35,1.21.69,1.39,2.53,1.39a4.08,4.08,0,0,0,2.53-.58c.22-.29,2.36-.81,4.77-1.15a51.35,51.35,0,0,0,5.85-1.1c.87-.29,6.73-.7,13-.93,11.09-.34,11.49-.29,12.41.81,2.18,2.66,3.71,3.12,8.6,2.6a32.86,32.86,0,0,1,8.3,0c4.24.64,10-.06,24.77-2.83a32.5,32.5,0,0,1,7.26-.69,42.82,42.82,0,0,0,7.42-.18c3-.28,5.59-.28,5.86,0,.52.52,9.39,1,9.13.52s4-1,4.54-.4c.31.35,1.53.46,2.93.29s2.49-.06,2.62.23c.39.81,3,.64,4.63-.29a5,5,0,0,1,3.84-.29c1.66.35,2.58.29,3-.17s.53-.75.05-1.1-.39-.52.17-.52,1,.52,1.18,1.1c.48,1.1,2.84,2.54,3.24,2,.61-.75,3.53-1.21,4.45-.63.74.4,1.31.34,2.32-.35,1.22-.87,1.35-.81,1.92.29.39.87,1,1.21,2.31,1.21,2.84.06,6.56-1.56,5.16-2.25-.87-.4-.66-1.33.26-1.33s1.75,1.27,1,1.62c-1,.4-.05,1.27,1,.92.83-.29,1-.17.78.58-.13.52-.09.93.18.93s.52-.35.65-.76.31-.52.79,0c.74.81,3.36,1.1,4.5.47.61-.35,1-.12,1.57.86.66,1.16,1,1.27,2.8.93,1.31-.29,2-.23,2,.17,0,.92,1.18.75,2.36-.23,2-1.79,8.21-1.21,12,1.1.74.46,12.41.57,40.85.52,49.76-.18,62.34-.41,63.43-1.22.61-.52-2.36-.63-11.93-.69-7,0-12.8-.23-12.8-.46s-.52-.75-1.18-1.1l-1.22-.63,1.22-.06c2.15-.12,1.27-1.22-1-1.22-1.88,0-3.14-.69-2.57-1.44.26-.35,8.6-.92,13.84-.92,4.5-.06,5-.12,5.16-1.16s.66-1.1,3.15-1.15a21.89,21.89,0,0,0,3.58-.23,1.77,1.77,0,0,1,1.31.34c.48.41.44.52-.13.52a.73.73,0,0,0-.79.64c0,.52,1.36.57,4.94.29,7.12-.58,12.1-.47,12.8.23a1.18,1.18,0,0,0,1.4.29c.48-.18,4.85-.41,9.69-.58,8.83-.23,9-.18,10.58,1.79a1.49,1.49,0,0,0,1.48.35c.61-.12,1.18.23,1.62,1s.87,1.1,1.13.93c.75-.64,2.28.92,1.75,1.79-.87,1.33.09,2,2.27,1.79a3.37,3.37,0,0,0,3.06-1.91c.92-1.5,1.09-1.56,4.06-1.27,6,.64,7.34.93,8.09,1.79,1,1.16,1.79,1.22,1.79.12,0-.41.61-.92,1.31-1.16,1.88-.46,1.62-1.5-.39-1.5-1.75,0-2.67-.81-1.93-1.79s7-.69,8.52.52c.88.69,1.36.75,1.66.35s1.18-.46,2.54-.18c2.36.64,3.54-.23,1.7-1.15-1.44-.75-1.44-1-.09-3.12.88-1.33,1.4-1.56,3.24-1.56s2.14.17,1.92.93-.05.86,1.22.52a5.38,5.38,0,0,0,2-.93c.57-.63,4.06-.4,4.85.23a3.31,3.31,0,0,0,2.31-.17c2.27-.81,8.17-.81,9.74-.06,3.32,1.68,6.34-.11,7.52-4.45a13.38,13.38,0,0,0,.44-7.1c-.27-1.27-.14-1.56.74-1.91s1-.4.17-1.21-.83-1.56-.78-7.62c.08-3.76.3-7,.52-7.34.57-.75.57-1.62-.09-3.64-1-3.23-1.26-6.12-.7-6.58s.62-5.49.14-7.34c-.18-.92-.09-1.27.34-1.27.7,0,1.4,2.48,1.23,4.22-.09.92.09,1,1.22.69,1.31-.35,1.36-.29,1.36,1.56s.83,3.93,1.61,3.93c.48,0,.26-28.25-.3-35-.35-4-.62-8.31-1.05-18.88a8.31,8.31,0,0,0-.57-2.89,4.47,4.47,0,0,1-.22-2.77c.53-3.12,0-14.62-.65-14.91-.4-.11-.57.41-.57,1.56,0,2-.66,2.83-1.09,1.33-.18-.52-.4-5.77-.53-11.67-.22-9.93-.17-10.91.66-13.57.52-1.62,1.13-4,1.44-5.49a37.05,37.05,0,0,1,1.09-4.21c.61-1.56.7-1.56,3.58-1.27,2.67.34,2.84.29,2.1-.52a6.4,6.4,0,0,0-2.71-1.27c-1.05-.18-1.92-.58-1.92-.87a33.94,33.94,0,0,1,.87-3.47,36.09,36.09,0,0,0,1.14-6.52,43,43,0,0,1,.83-5.84c.83-3.29,1.48-11.14,1.75-22.18.13-5.19.3-9.64.39-9.81.74-1.68.66-5.55-.22-9.42-1-4.39-1.13-8.2-.39-9.41a43.59,43.59,0,0,0,.48-7.63c.09-6.93-.18-8.78-1.88-14-.61-1.84-.74-2.88-.44-3.75s.13-2.83-.39-6.41c-.44-2.89-1-6.87-1.09-8.9-.22-2.42-.57-4-1.14-4.79-1-1.27-1.05-3.23-.13-3.7s.83-1.21-.17-1.56c-.53-.17-.79-.69-.7-1.61.17-2.08.17-2.08,1.05-2.43s1.48-1.62,2.62-4.79c.52-1.51,1.44-11.44,1.53-16.23,0-2.49.26-3.87.83-4.62,1-1.51,1-3.41-.13-3.82a1.34,1.34,0,0,1-.88-1.15,1.42,1.42,0,0,0-.7-1.21c-.92-.47-.35-1.51.88-1.51a3.67,3.67,0,0,0,2.05-1.09c.87-.93,1-1.33.61-2.72-.52-1.9-2.36-2.42-4.11-1.21-.83.52-1.09.52-1.22-.06a1.26,1.26,0,0,0-.92-.75c-1.26-.06.75-1,3-1.39,2.93-.46,3.28-1,3.19-4.16,0-1.5,0-3.4,0-4.21,0-6-.13-7.8-.52-8a4.44,4.44,0,0,1-.48-2.31c0-2.49-1.23-5.55-2.28-5.78-.39-.11-1.22.52-1.83,1.39-1.14,1.61-1.14,1.61-2.45.58a2.45,2.45,0,0,0-2.14-.64c-.61.23-.87.12-.87-.52s.26-.75.65-.58.66-.06.66-1.21-.18-1.5-.66-1.21-.65-.06-.65-.81.3-1.16.87-1.16c1.18,0,1.14-1-.09-1.27s-1.53-1.9-1.83-12.59c-.22-8.26-1-24.32-1.14-25.7a5.61,5.61,0,0,1,0-1.16c.31-2-.17-5.83-.78-6.47s-.66-.69-.05-.75.7-1.15.75-8.95c0-6.47-.09-9-.44-9s-.39-.18,0-.7c.65-.86.7-2.77,0-2.77-.35,0-.35-.23-.08-.75.65-1,1.09-4.85.65-5.26s-.35-1.79.44-6.58c.43-2.54.61-2.95,1.31-2.66.92.35,2.1-.63,2.1-1.85,0-.51-.49-.8-1.32-.8-1.18,0-1.31-.18-1.31-1.74,0-1.15.27-1.9.79-2.13s1.79-1.16,3.06-2.08c1.83-1.39,2.18-1.85,1.79-2.49a1.62,1.62,0,0,0-2.84.18c-.44.86-.66.92-1.14.29s-.3-1,.75-2.14l1.31-1.45-1-1.15c-.87-1-1.09-1.85-1.26-5.78-.22-3.58-.14-4.62.3-4.62.92,0,2.14,1.74,1.88,2.66s.22,1,1.05-.06c.44-.63,1.09-.81,2.1-.52,1.7.41,2.4-.58,1.39-2-.56-.69-.83-.75-1.35-.18s-.83.52-1.53,0c-1.31-1.1-1.14-1.85.66-2.72,1.35-.63,1.66-.63,2.4.23s.83.93,1.09.06a2.42,2.42,0,0,0-.22-1.67,1.16,1.16,0,0,1,0-1.33c.44-.58-.13-6.07-.92-8.72a3.47,3.47,0,0,0-4.63-2.66c-1.62.4-2,.75-2,1.5s-.26,1.1-1,1.33-1.22.29-1.31.17c-.44-.57-.26-11.38.17-12.94.31-1,.61-5.71.7-11.2.13-8.38.05-9.65-.57-10.22s-.69-.75,0-1.16c1-.52,1.48-2.14,1.88-6.41a31.62,31.62,0,0,1,.43-3.75,2.69,2.69,0,0,0-.08-1.28c-.31-1.09-1.58-1.27-1.45-.23a11.34,11.34,0,0,1,0,1.85c0,.87-.17.93-.69.35a4.09,4.09,0,0,1-.27-4c.27-.52.48-.57.66-.11.57,1.21,2.1.63,3.62-1.39s1.53-2.14,1.23-5a12.44,12.44,0,0,0-1-4c-.44-.69-.57-2.19-.48-5.78l.13-4.85,1.83-.17c1.57-.17,2.1-.58,3.41-2.6s1.57-2.77,1.4-4.22,0-2,1.26-3.35A4.28,4.28,0,0,0,436,91.63c0-2.14-1.22-3.24-3.49-3.24-1.1,0-1.4.41-2.19,2.6-1,2.89-1.14,3-2.27,1.68-.7-.93-.7-1-.09-1.68s.61-.92.26-1.84-.35-1.33,0-1.8.35-.86-.08-1.55-.48-1-.09-1.39a5.87,5.87,0,0,0,.39-3c-.09-1.44,0-4.62.13-7.16.27-3.75.18-4.91-.52-6.76-1-2.77-1.62-2.88-1.75-.4,0,1-.13,2.42-.17,3.06s-.09,2-.13,3.12c-.05,2-.05,2-.92.92-1-1.21-1-2.19.17-9.53.4-2.37,1-6.18,1.36-8.37.83-5,.83-8.78,0-11.32a32.47,32.47,0,0,1-.92-5.14,49.49,49.49,0,0,0-1.39-6.82c-1-3.23-1-3.75-.49-4.62a2.42,2.42,0,0,0,.49-1.67c-.09-.35.21-.81.74-1,.87-.35.87-.47.22-1.45a3.6,3.6,0,0,1-.44-2.89,3.14,3.14,0,0,0-.83-3.17c-1.22-1.5-1.4-2.31-.7-2.89s.57-3.93,0-4.68a7.15,7.15,0,0,1-.57-2.83c-.17-3.12-1.66-4.62-4-4a49.29,49.29,0,0,1-7.2.52l-11.36.24c-5.68.17-12.37-.7-13.37-1.74a3.91,3.91,0,0,0-2.49-.17,3.65,3.65,0,0,1-3.58-.87c-2.28-1.79-3.76-1.5-2.28.47.44.57,0,.63-2.18.28-2-.28-2.93-.17-3.45.41-1.05,1.15-2.32,1.21-20.27,1.38-18.18.18-26.56-.57-31.46-2.71C317.91.25,312.32,0,302.32.72c-3,.23-9.57.57-14.64.75s-11.31.52-14,.69-5.33.4-6,.35c-.88,0-1.23.29-1.23,1,0,.52.22,1.09.53,1.21s.35.58.17,1-.48.52-1,0-.61-.52-.61.06-.39.58-1.18.29c-1.53-.46-1.92-1.33-1.31-2.72.83-1.79-.35-2.25-4.33-1.85-2.88.29-3.58.18-3.8-.52-.35-1.27-6-1.38-6-.05,0,.63-.26.81-.83.52s-1.18.05-1.79.86c-.92,1.22-1,1.22-1.79.23-.66-.75-1-.86-1.36-.34a1.93,1.93,0,0,1-1.4.69c-.78,0-.83-.11-.26-.63s.48-.52-.22-.18c-2.05,1-4.15.87-6.86-.4-3.71-1.79-10.44-1.79-14.06,0-2,1-2.8,1.1-4.55.69C211.45,1.24,210.44,1.18,211,2c.44.7.39.87-.35.87a1.72,1.72,0,0,1-1.35-1c-.35-.87-.57-.93-1.45-.23s-4.54.92-9.74.81c-.48-.06-2.14,0-3.71.05A7.24,7.24,0,0,1,191,2.1a.64.64,0,0,0-1.05.12c-.65.86-2.4.92-2.75.11s-4.89-.75-5.24-.05c-.13.28.39.69,1.18.8s.17.29-1.36.29c-2.36.12-2.71,0-2.22-.75.83-1.33.08-2-2.1-1.73l-2.23.23c-.09.06.17.58.61,1.21.79,1.1.74,1.16-.13,1.16a.89.89,0,0,1-1-.75c0-1.62-1.92-2.14-7.08-2-4.1.12-5.24.29-5.68,1a4.59,4.59,0,0,1-3,1.33c-1.53.18-2.62.69-2.92,1.33-.49.81-.75.81-1.67.29-1.48-.93-2-.87-2,.17,0,.46-.31.87-.66.87s-.78.4-1,1c-.39.81-.48.81-1.22-.29a2.64,2.64,0,0,0-2-1.27c-.7,0-1.23-.29-1.23-.63s-.43-.52-1.09-.41c-1.09.29-8.26-.35-11-1-1.66-.4-1.88-1.56-.44-2.48.79-.52.49-.64-1.83-.64C129.23,0,129.18,0,130,1.18Zm35.78.92a.71.71,0,0,1,.44.87c-.35.81-1.36.63-1.66-.35S164.66,1.52,165.75,2.1ZM85.63,3.78c.43.75.39.86-.35.86-1,0-1.57-.75-1.09-1.38S85.06,2.85,85.63,3.78Zm85.06-.52a.71.71,0,0,1-.83.06c-.35-.18-.22-.35.26-.35S170.86,3.08,170.69,3.26Zm89.25,1.38c0,1-.31,1.16-3.15,1.16-3.45-.06-3.36-.87.14-1.45A7.83,7.83,0,0,0,259,3.78C259.46,3.14,259.94,3.55,259.94,4.64Zm13.89.12a1.42,1.42,0,0,1-1,.92c-.66.23-.7.12-.18-.69C273.4,3.89,274.05,3.78,273.83,4.76Zm5.51.69c.39-.17.7-.06.7.29s-1,.64-2.71.64c-2.67-.06-2.71-.06-1.44-.81a2.14,2.14,0,0,1,2.05-.29A1.52,1.52,0,0,0,279.34,5.45ZM48.93,6.38c-.83.69-1.31.69-1.31,0s1.35-1.15,1.75-.8C49.45,5.74,49.28,6.09,48.93,6.38ZM62.47,5.8c0,.29-.08.58-.17.58s-.35-.29-.48-.58,0-.58.17-.58A.52.52,0,0,1,62.47,5.8ZM43.69,7a11.51,11.51,0,0,1-3.28.47l-2.18-.06L40,7a24.55,24.55,0,0,1,3.28-.46C44.6,6.49,44.65,6.55,43.69,7ZM427.57,175.49a1,1,0,0,1,.17,1.22c-.3.63-.52.63-1.31,0-.48-.46-.91-1-.91-1.22C425.52,174.92,426.87,174.92,427.57,175.49ZM423.81,180a4.74,4.74,0,0,1,.22,1.85c-.44.52-1.57-1.16-1.57-2.25C422.46,178,423.29,178.27,423.81,180Zm5.9,2.6a1.15,1.15,0,0,1-.31,1.15c-1,.87-1.61.58-1.39-.63S429.23,181.56,429.71,182.6Zm-9,79.65a.56.56,0,0,1-.48.58c-.22,0-.31-.29-.18-.58s.35-.58.48-.58S420.71,261.9,420.71,262.25ZM428.79,310c0,1.1-.22,1.67-.65,1.67-.7,0-1.1-1.61-.7-2.94S428.79,308.11,428.79,310Zm2,10.86c0,.92-.61,2.08-1.14,2.08s-.83-1.27-.3-1.91C429.62,320.53,430.76,320.41,430.76,320.82Zm-39.19,315a2.64,2.64,0,0,1-1.31,0c-.44-.18-.18-.29.52-.29S391.83,635.6,391.57,635.78ZM343.21,638c.7.75.74.93.17,1.45a2.34,2.34,0,0,1-1.92.29,10.4,10.4,0,0,0-2.18-.29c-1.23,0-2.19-.87-1.84-1.68S342.2,636.93,343.21,638Zm7.91,0c-.18.64-4.42,1.1-5.42.64-1.31-.7-.13-1.22,2.66-1.22C350.15,637.39,351.2,637.63,351.12,638Zm25-.29c-.88.75-1.44.75-1.09,0a1.12,1.12,0,0,1,1-.57C376.72,637.11,376.72,637.22,376.15,637.68Zm-86.81,2.14a5.38,5.38,0,0,1-2,0c-.57-.11-.14-.23,1-.23S289.87,639.71,289.34,639.82ZM233.64,643c-.13.4-.48.75-.79.75s-.65-.35-.74-.75.18-.7.74-.7S233.73,642.59,233.64,643Zm50.81,2.31a9.59,9.59,0,0,1,1.27,2.25c0,.58-5.33,1.21-5.73.69-.22-.29,0-1,.48-1.79a4.25,4.25,0,0,0,.88-1.79c0-.52.7-1,1.44-1.15C283,643.46,283.71,644.33,284.45,645.31Zm-25.82-.7c0,.29-.35.58-.83.58-1.05,0-2.27,1.79-1.44,2.14,1.13.52.48,1.44-.88,1.15a16.68,16.68,0,0,0-4.19.29,8.09,8.09,0,0,1-3.5.12,1.86,1.86,0,0,0-1.09-.29c-.22.06-7.25.23-15.64.35-12.1.23-15.29.11-15.16-.47a3.83,3.83,0,0,1,2.41-1,6.48,6.48,0,0,0,2.84-1c.43-.52,1-.58,2.22-.11a5.1,5.1,0,0,0,3.06.11c1.44-.52,5.24-.52,5.86,0a55.22,55.22,0,0,0,7.77.41c7.17.05,10.71-.35,12-1.45.56-.46,3.14-1.1,5.81-1.39C258.28,644.09,258.63,644.27,258.63,644.61Zm19.13,1.51.14,1.84-4.55.41c-5.63.46-9.17,0-10.18-1.5-.91-1.33-.52-1.45.92-.18.92.81,1.05.81,1.4,0,.52-1.21,5.42-2.54,9.09-2.42l3.05.06Zm-17.51,0a.7.7,0,0,1-.83,0c-.35-.17-.22-.34.26-.34S260.42,645.94,260.25,646.12Zm114.81.23a1,1,0,0,1-.7.58c-.22,0-.4-.29-.4-.58a.63.63,0,0,1,.7-.58A.39.39,0,0,1,375.06,646.35Zm-161.17,1.56c-.3.4-3.36.29-3.71-.18-.09-.11.74-.23,1.92-.23S214.07,647.68,213.89,647.91Z"/><path d="M281.35,646.58c0,.52.3.92.7.92a.52.52,0,0,0,.52-.69C282.31,645.77,281.35,645.6,281.35,646.58Z"/><path d="M139.67,1c-.61.81-.31,2,.48,1.85a1.14,1.14,0,0,0,.74-1C140.89.89,140.11.37,139.67,1Z"/><path d="M53.08,2.28a.74.74,0,0,0,1.09.92c.48-.4.18-1.44-.43-1.44C53.52,1.76,53.26,2,53.08,2.28Z"/><path d="M55.13,3.6c-.83,1.1-.61,1.74.44,1.51a1.52,1.52,0,0,0,1.14-1.22C56.88,2.74,55.92,2.56,55.13,3.6Z"/><path d="M148.54,3.78a.87.87,0,1,0,.87-.87A.88.88,0,0,0,148.54,3.78Z"/><path d="M430.67,8.22c0,.76,0,1.74,0,2.2a21.38,21.38,0,0,1,.22,2.31c.22,2.89.88,1.33,1-2.2.05-2.65-.13-3.58-.56-3.58S430.71,7.53,430.67,8.22Z"/><path d="M4.81,13c0,.58.3.86.78.75.92-.23.83-1.27-.09-1.5C5.07,12.15,4.81,12.44,4.81,13Z"/><path d="M431.19,16.89c0,1.1.09,1.15.44.46.57-1.1.57-1.73,0-1.73C431.41,15.62,431.19,16.2,431.19,16.89Z"/><path d="M5,22.09c0,1.85.57,2.77,1.58,2.77s1.05-.75.13-2.6S5,20.41,5,22.09Z"/><path d="M425.78,21.91a15.5,15.5,0,0,0,2.57,1.51A14.66,14.66,0,0,1,431.11,25c.65.7.7.12.08-1.38-.26-.58-.78-1.1-1.22-1.1-.65,0-.65-.12-.09-.58s-.08-.58-1.92-.58C426.43,21.39,425.52,21.62,425.78,21.91Z"/><path d="M431,22c.13.29.35.58.48.58s.17-.29.17-.58a.52.52,0,0,0-.48-.58C430.93,21.39,430.84,21.62,431,22Z"/><path d="M427.31,28.5a7.81,7.81,0,0,1-.09,2.42c-.44,1.1-.44,10,0,10.34.79.64,1-.86,1.22-7.79.22-6.18.13-6.88-.52-6.88S427.22,27.05,427.31,28.5Z"/><path d="M431,30.06c.13.29.35.58.48.58s.17-.29.17-.58a.52.52,0,0,0-.48-.58C430.93,29.48,430.84,29.71,431,30.06Z"/><path d="M427,42.76c-.35.76.18,1.85.7,1.45s.53-2,0-2A.86.86,0,0,0,427,42.76Z"/><path d="M432.29,46.75c-.44,1,1.48,2,2.22,1.21a1.37,1.37,0,0,0,.35-1.21C434.56,46.06,432.64,46.11,432.29,46.75Z"/><path d="M4.37,52.29c0,1.28.17,1.45,1.62,1.45H7.65L6.47,52.29c-.66-.8-1.4-1.44-1.66-1.44S4.37,51.49,4.37,52.29Z"/><path d="M428.84,52.41c-.35.46,3.1,2.25,5.41,2.77,1.71.41,1.75.35,1.75-1.38V52h-3.41C430.71,52,429,52.18,428.84,52.41Z"/><path d="M427.26,58.76c0,.93-.13,2.6-.26,3.82-.26,1.84-.17,2.13.44,1.79s.74-.93.65-2.54a6.22,6.22,0,0,1,.4-3c.56-.92.3-1.62-.66-1.62C427.48,57.2,427.26,57.84,427.26,58.76Z"/><path d="M431.81,76.32a1.47,1.47,0,0,0,.21,1.27c.35.47.49.29.49-.63C432.51,75.57,432.29,75.34,431.81,76.32Z"/><path d="M422.68,173.88c-.14.29,0,.58.43.58s.57-.29.44-.58-.35-.58-.44-.58S422.81,173.53,422.68,173.88Z"/><path d="M431,195c-.22.75-.44.81-1.14.29-1.22-.87-2.49.29-1.7,1.5a1.81,1.81,0,0,0,3-.06c.31-.46.4-.86.18-.86s0-.41.52-.87c.7-.69.75-.81.13-.87A1.22,1.22,0,0,0,431,195Z"/><path d="M428.84,209.86a2.29,2.29,0,0,0-.7,1.62c.21,1.73-.05,2.31-1.14,2.83-1.31.69-1,1.73.57,1.73.78,0,1.05-.23.87-.81A1,1,0,0,1,429,214a2.1,2.1,0,0,0,1.05-1.21c.17-.7.44-.75,1.13-.23,1.66,1.21,2.41-.75,1-2.49A2.1,2.1,0,0,0,428.84,209.86Z"/><path d="M423.33,249.54a.67.67,0,0,0,.7.58.4.4,0,0,0,.39-.58.84.84,0,0,0-.7-.58C423.51,249,423.33,249.2,423.33,249.54Z"/><path d="M428.57,254.74a4.29,4.29,0,0,0-.35,1.91,7.43,7.43,0,0,1-.26,2,10.57,10.57,0,0,0,0,3.35l.26,2,.79-1.33a5.69,5.69,0,0,0,.7-2.94c-.09-.87,0-1.56.17-1.56a5.19,5.19,0,0,0,.13-2.31C429.8,253.35,429.32,253,428.57,254.74Z"/><path d="M425.38,281.71a3.78,3.78,0,0,0-.3,1.74c0,1,.22,1.33,1.09,1.33,1.09,0,1.35-.76.83-2.55C426.74,281.31,425.86,281,425.38,281.71Z"/><path d="M425.73,287.89c-.65.64-.74,1-.39,1.51a1.45,1.45,0,0,0,2.58-.87C427.92,287.09,426.87,286.8,425.73,287.89Z"/><path d="M428.09,294.13c-.65,2.95.35,5.84,1.92,5.55,1.23-.23,1.1-2.49-.26-4.39C429,294.19,428.22,293.67,428.09,294.13Z"/><path d="M426,302.22c.26,1,1.22,1.21,1.22.23,0-.52-.3-.92-.7-.92A.51.51,0,0,0,426,302.22Z"/><path d="M430.32,302.74c0,.29.22.4.44.23a.92.92,0,0,0,.43-.64c0-.11-.17-.23-.43-.23S430.32,302.39,430.32,302.74Z"/><path d="M432.94,463c0,1,1,.81,1.23-.23a.52.52,0,0,0-.53-.69C433.25,462.1,432.94,462.5,432.94,463Z"/><path d="M426.17,505.47a1,1,0,0,0,0,.93c.35.46,1.57-.29,1.57-1S426.52,504.66,426.17,505.47Z"/><path d="M3.71,525.63c-.13.29.13.58.66.58s.79-.29.65-.58a.83.83,0,0,0-.65-.58A.85.85,0,0,0,3.71,525.63Z"/><path d="M427.44,602.16a16.68,16.68,0,0,0,0,4.22c.22,1.79.39,4.79.39,6.58.05,3.35.31,4.33,1.05,3.7.48-.41.61-6.53.26-11.78-.21-2.55-.43-3.58-.87-3.58S427.57,601.7,427.44,602.16Z"/><path d="M433.2,612.56c-.13.52,0,.86.4.86s.65-.4.65-.86-.17-.87-.39-.87S433.38,612.1,433.2,612.56Z"/><path d="M433.68,617.87c-.48.58-.34,3.64.14,3.64.26,0,.43-.92.43-2C434.25,617.41,434.17,617.18,433.68,617.87Z"/><path d="M433.38,622.67c0,.29.22.57.44.57s.43-.28.43-.57-.17-.58-.43-.58A.52.52,0,0,0,433.38,622.67Z"/><path d="M433.38,625.79c0,.92.22,1.5.65,1.5a.75.75,0,0,0,.66-.81A2.81,2.81,0,0,0,434,625C433.47,624.34,433.38,624.51,433.38,625.79Z"/><path d="M428.57,625.55c0,.29.22.58.44.58s.44-.29.44-.58-.18-.57-.44-.57A.52.52,0,0,0,428.57,625.55Z"/><path d="M433.38,629.6a6.38,6.38,0,0,1-.48,2.19c-.57,1.22.22,4.39,1.05,4a1,1,0,0,0,.35-1,25.73,25.73,0,0,1-.09-3.58c0-1.56-.09-2.72-.39-2.72S433.38,629,433.38,629.6Z"/><path d="M405.64,641.15c.17.35.48.46.7.29.61-.52.48-.87-.31-.87A.4.4,0,0,0,405.64,641.15Z"/><path d="M307,642.13a.7.7,0,0,0,.83-.06c.18-.17-.08-.34-.56-.29S306.69,642,307,642.13Z"/><path d="M329.4,644.61a3,3,0,0,1-1.61.58,1.78,1.78,0,0,0-1.4,1,2.21,2.21,0,0,1-2.1,1.1c-.92.06-2.93.35-4.5.64-2.62.46-2.71.57-1.44,1a4.07,4.07,0,0,0,2.18.11c2.06-.8,12.59-.86,17.17,0a22.11,22.11,0,0,0,8.65.17l3.8-.69-1.92-.52a5.77,5.77,0,0,0-3.58.11c-2,.81-4.63.81-5,.06-.13-.29-2-.58-4.15-.58-3.89,0-5.24-.29-5.24-1.15,0-.29.39-.7.87-.87a1.3,1.3,0,0,0,.87-.92C332,643.86,330.23,643.92,329.4,644.61Z"/><path d="M353.65,646.93c.13.28.35.57.48.57s.17-.29.17-.57a.52.52,0,0,0-.48-.58C353.61,646.35,353.52,646.58,353.65,646.93Z"/><path d="M364,647.33a1.47,1.47,0,0,0,.92,1.21c1,.29.92-.58-.17-1.5C364,646.35,363.87,646.41,364,647.33Z"/><path d="M352.78,648.08c-.14.29,0,.58.43.58s.57-.29.44-.58-.35-.58-.44-.58S352.91,647.73,352.78,648.08Z"/><path d="M391.31,648.14c.35.46.7.46,1.31,0s.61-.58-.48-.64S391,647.68,391.31,648.14Z"/></g></g></g></svg>