<svg xmlns="http://www.w3.org/2000/svg" viewBox="0 0 485.98 693.77"><g id="Camada_2" data-name="Camada 2"><g id="Camada_1-2" data-name="Camada 1"><path d="M482.09,95c-1.21,0-1.55.43-2.43,2.77-1.11,3.08-1.26,3.2-2.52,1.78-.78-1-.78-1.11-.1-1.78s.68-1,.29-2-.39-1.42,0-1.91.39-.93-.1-1.67-.53-1.1-.09-1.47a6.1,6.1,0,0,0,.43-3.14c-.09-1.54,0-4.93.15-7.64.29-4,.19-5.24-.58-7.21-1.12-3-1.8-3.07-1.95-.43-.05,1.11-.14,2.59-.19,3.27s-.1,2.15-.15,3.32c-.05,2.1-.05,2.1-1,1-1.12-1.3-1.07-2.34.2-10.16.43-2.53,1.11-6.59,1.5-8.93.93-5.36.93-9.36.05-12.07a32.28,32.28,0,0,1-1-5.48A50.07,50.07,0,0,0,473,36c-1.12-3.45-1.17-4-.54-4.93a2.5,2.5,0,0,0,.54-1.78c-.1-.37.24-.87.82-1.11,1-.37,1-.49.24-1.54a3.75,3.75,0,0,1-.48-3.08,3.28,3.28,0,0,0-.92-3.39c-1.37-1.6-1.56-2.46-.78-3.08s.63-4.18,0-5a7.11,7.11,0,0,1-.63-3c-.2-3.33-1.85-4.93-4.48-4.25a61.06,61.06,0,0,1-8,.55c-3.36.06-9,.19-12.64.25-6.32.18-13.75-.74-14.87-1.85-.29-.31-1.55-.37-2.77-.18a4.23,4.23,0,0,1-4-.93c-2.53-1.91-4.18-1.6-2.53.5.49.61,0,.67-2.43.3-2.23-.3-3.26-.18-3.84.43-1.16,1.24-2.57,1.3-22.55,1.48-20.21.19-29.54-.61-35-2.89C354.63,1,348.41.7,337.28,1.5c-3.35.25-10.64.62-16.28.8s-12.59.56-15.55.74-5.93.43-6.66.37c-1,0-1.36.31-1.36,1.11,0,.55.24,1.17.58,1.29s.39.62.2,1.05-.54.55-1.07,0-.68-.55-.68.06-.44.62-1.31.31c-1.7-.49-2.14-1.42-1.46-2.89.92-1.91-.39-2.41-4.81-2-3.21.3-4,.18-4.23-.56C284.26.46,278,.33,278,1.75c0,.68-.29.86-.92.55s-1.31.07-2,.93c-1,1.29-1.07,1.29-2,.24-.72-.8-1.06-.92-1.5-.37a2.15,2.15,0,0,1-1.56.74c-.87,0-.92-.12-.29-.67s.54-.56-.24-.19c-2.29,1.05-4.62.92-7.63-.43-4.13-1.91-11.62-1.91-15.65,0-2.23,1.05-3.11,1.17-5.05.74-5-1.23-6.08-1.29-5.45-.37.49.74.44.92-.38.92a1.91,1.91,0,0,1-1.51-1c-.39-.93-.63-1-1.6-.25s-5.06,1-10.84.86c-.54-.06-2.38,0-4.13.06A8.24,8.24,0,0,1,213.46,3a.73.73,0,0,0-1.17.12c-.73.93-2.67,1-3.06.13s-5.44-.8-5.83-.06c-.15.3.44.73,1.31.86s.2.31-1.51.31c-2.62.12-3,0-2.47-.8.92-1.42.09-2.1-2.34-1.85l-2.47.24c-.1.07.19.62.68,1.3.67.9.79,1.14.36,1.21l-1.25-.21a.73.73,0,0,1-.33-.57c0-1.15-1-1.78-3.29-2-.37-.91-.88-1-2.68-1a4.79,4.79,0,0,0-2.82.61,2.79,2.79,0,0,1-1.09.43c-2.54.12-3.6.31-4.1.79h-.1a60.17,60.17,0,0,0-6.51,1.17,55.58,55.58,0,0,1-6.83.63.95.95,0,0,0-1.59.09c-1.89.1-4,.19-6.07.27-2.45.07-4.43.13-6,.16-1.55-.18-3-.39-3.93-.6-1.84-.43-2.09-1.66-.48-2.65.87-.55.53-.67-2-.67C144.74.76,144.7.76,145.57,2c.6.8.73,1.1.45,1.19C143.83.83,142,.44,136.93,1a39.49,39.49,0,0,1-9.23,0c-4.41-.64-10.27,0-24.5,2.47-1.32-.24-2.54-.16-2.82.41a.36.36,0,0,1-.07.1l-.17,0-.4.07A3.51,3.51,0,0,1,99,3.35c-1.07-1.23-4.18-2.28-4.18-1.42,0,.31-.44.68-1,.87s-.88.61-.68,1-.39.68-1.65.68-2-.31-2-.62-.19-.61-.48-.61-.49.37-.49.86a.71.71,0,0,1-.38.55c-1.34,0-2.84.12-4.28.26-3.3.3-6.22.3-6.51,0-.58-.56-10.44-1.11-10.15-.56s-1.62.76-3.15.77a1.43,1.43,0,0,0,.08-.22c.19-1.23-.88-1.42-1.75-.31l-.17.24-.07-.05c-.34-.37-1.7-.49-3.25-.3s-2.77.06-2.92-.25c-.44-.86-3.3-.68-5.15.31a5.76,5.76,0,0,1-4.28.31c-1.84-.37-2.86-.31-3.3.18a1.36,1.36,0,0,0-.4.58H41.66l0,0C41.1,4.4,38.48,2.86,38,3.48c-.62.73-3.35,1.2-4.61.82a2.1,2.1,0,0,1-.11-.64c0-1.21-.94-1.05-1.44.25a3.46,3.46,0,0,0-1.37.62c-1.36.92-1.51.86-2.14-.31-.44-.92-1.17-1.29-2.58-1.29-2.61-.05-5.89,1.12-6.05,1.94-.27,0-.52-.06-.73-.1.38-.45-.51-1-1.53-.74s-1.12.19-.87-.61c.14-.56.09-1-.2-1s-.58.37-.73.8-.34.56-.87,0c-.83-.86-3.74-1.17-5-.49-.68.37-1.11.12-1.74-.92C7.33.59,7,.46,4.94.83c-1.45.31-2.23.25-2.23-.18,0-1-1.31-.8-2.62.24L0,1V689.5H.52c.54.06,2.38,0,4.13-.06a8.53,8.53,0,0,1,3.79.49.73.73,0,0,0,1.17-.12c.73-.92,2.67-1,3.06-.12s5.44.8,5.83.06c.15-.31-.43-.74-1.31-.86s-.19-.31,1.51-.31c2.62-.12,3,0,2.48.8-.93,1.42-.1,2.09,2.33,1.85,1.26-.13,2.38-.25,2.48-.25s-.2-.62-.68-1.29c-.68-.91-.8-1.15-.37-1.21l1.26.21a.75.75,0,0,1,.32.57c0,1.15,1,1.77,3.3,2,.36.91.88,1.06,2.67,1.06a4.75,4.75,0,0,0,2.82-.62,3,3,0,0,1,1.1-.43c2.53-.11,3.59-.31,4.09-.78l.11,0a58.65,58.65,0,0,0,6.51-1.17c1-.31,7.48-.74,14.48-1,2.46-.08,4.43-.13,6.05-.17,1.54.18,3,.39,3.92.6,1.85.43,2.09,1.67.48,2.65-.87.56-.53.68,2,.68,3.06.06,3.11.06,2.23-1.17-.6-.81-.73-1.1-.45-1.19,2.19,2.35,4,2.75,9.09,2.23a38.51,38.51,0,0,1,9.24,0c4.41.63,10.26,0,24.49-2.48,1.32.25,2.54.16,2.82-.41a.86.86,0,0,1,.07-.1l.17,0,.4-.07a3.55,3.55,0,0,1,.77.69c1.07,1.24,4.18,2.28,4.18,1.42,0-.31.44-.68,1-.86s.88-.62.68-1,.39-.67,1.66-.67c1.11,0,2,.3,2,.61s.19.62.48.62.49-.37.49-.86a.72.72,0,0,1,.38-.55c1.34,0,2.84-.13,4.28-.26,3.3-.31,6.22-.31,6.51,0,.58.55,10.45,1.11,10.16.55s4.42-1.11,5.05-.43c.34.37,1.7.49,3.26.31s2.77-.06,2.91.25c.44.86,3.31.67,5.15-.31a5.72,5.72,0,0,1,4.28-.31c1.84.37,2.87.31,3.3-.19a1.36,1.36,0,0,0,.4-.58h1.14a.08.08,0,0,0,0,0c.53,1.17,3.16,2.71,3.59,2.09.62-.72,3.35-1.19,4.61-.81a2.12,2.12,0,0,1,.12.64c0,1.21.93,1,1.43-.25a3.64,3.64,0,0,0,1.38-.62c1.36-.93,1.5-.86,2.13.31.44.92,1.17,1.29,2.58,1.29,2.62,0,5.89-1.12,6.06-2l.72.1c-.38.46.52,1.05,1.53.74s1.12-.18.87.62c-.14.55-.09,1,.2,1s.58-.37.73-.8.34-.55.87,0c.83.86,3.74,1.17,5,.49.68-.37,1.12-.12,1.75.93.73,1.23,1.07,1.35,3.11,1,1.46-.31,2.23-.24,2.23.19,0,1,1.31.8,2.63-.25,2.28-1.91,9.13-1.29,13.36,1.17.83.49,13.8.62,45.44.56,55.35-.19,69.34-.44,70.56-1.3.68-.55-2.63-.68-13.27-.74-7.82,0-14.24-.24-14.24-.49s-.58-.8-1.31-1.17l-1.36-.68,1.36-.06c2.38-.12,1.41-1.29-1.07-1.29-2.09,0-3.5-.74-2.87-1.54.3-.37,9.58-1,15.41-1,5-.06,5.54-.12,5.73-1.23s.73-1.17,3.5-1.23a23.72,23.72,0,0,0,4-.25,2,2,0,0,1,1.45.37c.54.43.49.56-.14.56a.79.79,0,0,0-.88.67c0,.56,1.51.62,5.5.31,7.92-.61,13.46-.49,14.23.25a1.36,1.36,0,0,0,1.56.31c.53-.19,5.39-.43,10.79-.62,9.81-.25,10-.18,11.76,1.91a1.72,1.72,0,0,0,1.65.37c.68-.12,1.31.25,1.8,1.11s1,1.17,1.26,1c.83-.67,2.53,1,1.94,1.91-1,1.42.1,2.16,2.53,1.91,1.85-.25,2.63-.68,3.4-2,1-1.6,1.22-1.66,4.52-1.36,6.66.68,8.17,1,9,1.91,1.07,1.23,2,1.3,2,.13,0-.43.68-1,1.46-1.24,2.09-.49,1.8-1.6-.43-1.6-1.95,0-3-.86-2.14-1.91s7.77-.73,9.47.56c1,.74,1.51.8,1.85.37s1.31-.49,2.82-.19c2.62.68,3.93-.24,1.89-1.23-1.6-.8-1.6-1.11-.09-3.32,1-1.42,1.55-1.67,3.59-1.67s2.38.19,2.14,1,0,.92,1.36.55a5.86,5.86,0,0,0,2.19-1c.63-.68,4.52-.43,5.39.24a3.85,3.85,0,0,0,2.58-.18c2.52-.86,9.08-.86,10.83-.06,3.7,1.78,7.05-.13,8.36-4.74a13.72,13.72,0,0,0,.49-7.58c-.29-1.35-.15-1.66.82-2s1.12-.43.2-1.29-.92-1.67-.88-8.13c.1-4,.34-7.52.59-7.82.63-.8.63-1.73-.1-3.88-1.07-3.45-1.41-6.53-.78-7s.68-5.85.15-7.83c-.2-1-.1-1.35.39-1.35.77,0,1.55,2.65,1.36,4.5-.1,1,.1,1.1,1.36.73,1.46-.36,1.51-.3,1.51,1.67s.92,4.18,1.79,4.18c.54,0,.29-30.11-.34-37.25-.39-4.25-.68-8.87-1.16-20.14a8.21,8.21,0,0,0-.64-3.08,4.65,4.65,0,0,1-.24-3c.59-3.32-.05-15.58-.73-15.88-.43-.13-.63.43-.63,1.66,0,2.15-.73,3-1.21,1.42-.2-.56-.44-6.16-.59-12.44-.24-10.6-.19-11.64.73-14.48.59-1.72,1.27-4.31,1.61-5.85a36.92,36.92,0,0,1,1.21-4.49c.68-1.66.78-1.66,4-1.36,3,.37,3.15.31,2.33-.55a7.35,7.35,0,0,0-3-1.36c-1.17-.18-2.14-.61-2.14-.92a32.76,32.76,0,0,1,1-3.69,37.28,37.28,0,0,0,1.26-7,45.25,45.25,0,0,1,.93-6.22c.92-3.51,1.65-11.89,1.94-23.65.15-5.54.34-10.29.44-10.47.82-1.79.73-5.91-.25-10-1.11-4.68-1.26-8.74-.43-10,.24-.37.48-4.06.53-8.13.1-7.39-.19-9.36-2.09-14.9-.68-2-.82-3.08-.48-4s.14-3-.44-6.84c-.49-3.08-1.07-7.33-1.22-9.48-.24-2.59-.63-4.31-1.26-5.11-1.07-1.36-1.17-3.45-.15-3.94s.93-1.3-.19-1.67c-.58-.18-.88-.74-.78-1.72.2-2.22.2-2.22,1.17-2.59s1.65-1.72,2.91-5.11c.59-1.6,1.61-12.19,1.7-17.3.05-2.65.3-4.13.93-4.93,1.12-1.6,1.07-3.63-.15-4.06a1.47,1.47,0,0,1-1-1.24,1.52,1.52,0,0,0-.78-1.29c-1-.49-.39-1.6,1-1.6a4,4,0,0,0,2.29-1.17c1-1,1.07-1.42.68-2.89-.58-2-2.62-2.59-4.57-1.3-.92.56-1.21.56-1.36-.06a1.4,1.4,0,0,0-1-.8c-1.41-.06.83-1,3.3-1.48,3.26-.49,3.65-1,3.55-4.43-.05-1.6-.05-3.64-.05-4.5,0-6.4-.14-8.31-.58-8.5A4.54,4.54,0,0,1,483,331c0-2.65-1.36-5.91-2.53-6.16-.44-.12-1.36.56-2,1.48-1.27,1.72-1.27,1.72-2.72.62a2.79,2.79,0,0,0-2.38-.68c-.68.25-1,.12-1-.56s.3-.8.73-.61.73-.06.73-1.29-.19-1.61-.73-1.3-.73-.06-.73-.86.34-1.23,1-1.23c1.31,0,1.26-1.11-.1-1.36s-1.7-2-2-13.42c-.25-8.81-1.07-25.93-1.27-27.41a6.31,6.31,0,0,1,0-1.23c.34-2.09-.19-6.22-.87-6.89s-.73-.74-.05-.81.78-1.23.83-9.54c0-6.9-.1-9.55-.49-9.55s-.44-.18,0-.73c.73-.93.78-3,.05-3-.39,0-.39-.25-.1-.8.73-1.11,1.22-5.17.73-5.61s-.39-1.9.49-7c.48-2.71.68-3.14,1.45-2.83a2,2,0,0,0,2.34-2c0-.55-.54-.86-1.46-.86-1.31,0-1.46-.19-1.46-1.85,0-1.23.29-2,.88-2.28.43-.24,2-1.23,3.4-2.21,2-1.48,2.43-2,2-2.65a1.84,1.84,0,0,0-3.16.18c-.48.93-.73,1-1.26.31s-.34-1,.82-2.28l1.46-1.54-1.12-1.23c-1-1.05-1.21-2-1.4-6.16-.25-3.82-.15-4.92.34-4.92a2.8,2.8,0,0,1,2.08,2.83c-.34,1.11.25,1.11,1.17-.06a1.92,1.92,0,0,1,2.33-.56c1.9.43,2.68-.61,1.56-2.09-.63-.74-.92-.8-1.51-.19s-.92.56-1.7-.06c-1.46-1.17-1.26-2,.73-2.89,1.51-.68,1.85-.68,2.67.24s.93,1,1.22.07a2.53,2.53,0,0,0-.24-1.79,1.16,1.16,0,0,1-.05-1.42c.48-.61-.15-6.46-1-9.3-.73-2.46-2.58-3.44-5.16-2.83-1.79.43-2.28.8-2.18,1.6s-.29,1.17-1.12,1.42-1.36.31-1.46.18c-.48-.61-.29-12.13.2-13.79.34-1.05.68-6.1.77-12,.15-8.93.05-10.28-.63-10.9s-.77-.8.05-1.23c1.12-.55,1.65-2.28,2.09-6.84a30.52,30.52,0,0,1,.49-4,2.79,2.79,0,0,0-.1-1.35c-.34-1.17-1.75-1.36-1.6-.25a16,16,0,0,1,0,2c-.05.93-.2,1-.78.37a4.2,4.2,0,0,1-.29-4.25c.29-.55.53-.61.73-.12.63,1.29,2.33.68,4-1.48s1.7-2.28,1.36-5.36a12.63,12.63,0,0,0-1.07-4.25c-.49-.74-.63-2.34-.53-6.15l.14-5.18,2-.18c1.75-.19,2.34-.62,3.79-2.77s1.75-3,1.56-4.5,0-2.15,1.41-3.57a4.5,4.5,0,0,0,1.65-3.7C486,96.16,484.62,95,482.09,95ZM94.64,4.21c.45-.56.9-.45,1.45.33-.57.07-1.12.12-1.63.15A.87.87,0,0,1,94.64,4.21Zm32.62,684.5c-.45.57-.89.45-1.45-.33l1.63-.15A.8.8,0,0,1,127.26,688.71ZM286.79,5.38a8.76,8.76,0,0,0,2.33-.61c.49-.68,1-.25,1,.92s-.34,1.23-3.5,1.23C282.8,6.86,282.9,6,286.79,5.38ZM260,685.56c.63,0,1,.31.88.74a1.13,1.13,0,0,1-.88.8,1,1,0,0,1-.82-.8C259,685.87,259.38,685.56,260,685.56Zm-21.09,6c-.34.43-3.74.31-4.13-.19-.1-.12.83-.24,2.14-.24S239.12,691.29,238.92,691.54Zm48.84-2.9c-1.17,0-2.53,1.91-1.6,2.28,1.26.56.53,1.54-1,1.23a19.15,19.15,0,0,0-4.66.31,9.22,9.22,0,0,1-3.89.12,2.21,2.21,0,0,0-1.21-.3c-.25.06-8.07.24-17.4.37-13.46.24-17,.12-16.86-.5.14-.37,1.31-.86,2.67-1a7.56,7.56,0,0,0,3.16-1.05c.48-.55,1.17-.62,2.48-.12a5.83,5.83,0,0,0,3.4.12c1.6-.55,5.83-.55,6.51,0a64.45,64.45,0,0,0,8.65.43c8,.06,11.91-.37,13.36-1.54.64-.49,3.5-1.17,6.47-1.48.43,0,.82.19.82.56S288.29,688.64,287.76,688.64Zm2.72,1a.8.8,0,0,1-.92.06c-.39-.18-.24-.37.29-.37S290.68,689.44,290.48,689.63ZM307.88,6.68a2.44,2.44,0,0,1,2.28-.31,1.76,1.76,0,0,0,1.56.18c.44-.18.78-.06.78.31s-1.12.68-3,.68C306.52,7.48,306.47,7.48,307.88,6.68Zm-3.6-.62c.83-1.17,1.56-1.29,1.31-.25a1.56,1.56,0,0,1-1.11,1C303.75,7.05,303.7,6.92,304.28,6.06Zm.78,686c-6.27.49-10.2,0-11.32-1.6-1-1.42-.59-1.54,1-.19,1,.87,1.16.87,1.55,0,.59-1.29,6-2.7,10.11-2.58l3.4.06.15,1.91.14,2Zm13.75-.86c0,.61-5.93,1.29-6.36.74-.25-.31,0-1.11.53-1.91a4.4,4.4,0,0,0,1-1.91c0-.55.78-1.11,1.61-1.23.19-.06,1,.86,1.84,1.91A9.93,9.93,0,0,1,318.81,691.17Zm4-8.25a6.7,6.7,0,0,1-2.19,0c-.63-.13-.15-.25,1.07-.25S323.43,682.79,322.85,682.92Zm60.11-.43a2.68,2.68,0,0,1-2.14.3,12.93,12.93,0,0,0-2.43-.3c-1.36,0-2.43-.93-2-1.79s5.3-.86,6.41.25C383.54,681.75,383.59,681.93,383,682.49Zm2.57-.87c-1.45-.74-.14-1.29,3-1.29,2,0,3.16.25,3.06.62C391.37,681.62,386.65,682.12,385.53,681.62Zm32.66,8.26a1.07,1.07,0,0,1-.78.61c-.24,0-.44-.31-.44-.61s.35-.62.78-.62S418.34,689.51,418.19,689.88Zm1.21-9.24c-1,.8-1.6.8-1.21,0a1.26,1.26,0,0,1,1.12-.62C420,680,420,680.15,419.4,680.64Zm17.16-2a3,3,0,0,1-1.46,0c-.49-.19-.19-.31.58-.31S436.85,678.42,436.56,678.61Zm42-335.63c.34-.49,1.6-.62,1.6-.19,0,1-.68,2.22-1.26,2.22S478,343.66,478.55,343Zm-2.09-13.12c.48-1.54,1.5-.61,1.5,1.36,0,1.17-.24,1.78-.73,1.78C476.46,333,476,331.28,476.46,329.86Zm-7.68-50.13c.09,0,.19.25.19.62a.6.6,0,0,1-.53.62c-.25,0-.34-.31-.2-.62S468.63,279.73,468.78,279.73ZM477.09,196c.29-1.35,1.36-1.66,1.89-.55a1.2,1.2,0,0,1-.34,1.23C477.48,197.58,476.84,197.27,477.09,196Zm-.49-8.13a1.05,1.05,0,0,1,.2,1.3c-.34.67-.59.67-1.46,0-.54-.5-1-1.05-1-1.3C474.32,187.24,475.82,187.24,476.6,187.85Zm-4.18,4.81a5,5,0,0,1,.25,2c-.49.55-1.75-1.24-1.75-2.41C470.92,190.5,471.84,190.81,472.42,192.66Z"/><path d="M314,690.12a.89.89,0,0,0,.78,1,.56.56,0,0,0,.58-.74C315,689.26,314,689.07,314,690.12Z"/><path d="M156.89,3.72a1.21,1.21,0,0,0,.83-1.05c0-1-.88-1.54-1.36-.92C155.68,2.61,156,3.9,156.89,3.72Z"/><path d="M61.26,4.15a.92.92,0,0,0-.49-1.54,1.08,1.08,0,0,0-.73.56A.82.82,0,0,0,61.26,4.15Z"/><path d="M480.34,14.31c.25,3.08,1,1.42,1.07-2.34,0-2.83-.14-3.82-.63-3.82-.34,0-.68.62-.73,1.36s0,1.85.05,2.34A23.49,23.49,0,0,1,480.34,14.31Z"/><path d="M480.63,18.75c0,1.17.1,1.23.49.49.63-1.17.63-1.85,0-1.85C480.88,17.39,480.63,18,480.63,18.75Z"/><path d="M477.48,25.7a16.92,16.92,0,0,1,3.06,1.73c.73.74.77.12.09-1.48-.29-.61-.87-1.17-1.36-1.17-.72,0-.72-.12-.09-.61s-.1-.62-2.14-.62c-1.7,0-2.72.25-2.43.55A16,16,0,0,0,477.48,25.7Z"/><path d="M480.39,24.17c.15.3.39.61.54.61s.19-.31.19-.61a.57.57,0,0,0-.53-.62C480.34,23.55,480.25,23.8,480.39,24.17Z"/><path d="M476.21,44.73c.88.68,1.12-.92,1.36-8.31.25-6.59.15-7.33-.58-7.33s-.78.49-.68,2a7.62,7.62,0,0,1-.1,2.59C475.73,34.88,475.73,44.36,476.21,44.73Z"/><path d="M480.59,32.17c-.25,0-.34.25-.2.62s.39.61.54.61.19-.31.19-.61A.57.57,0,0,0,480.59,32.17Z"/><path d="M476.8,47.87c.58-.49.58-2.15,0-2.15a.92.92,0,0,0-.78.62C475.63,47.14,476.21,48.31,476.8,47.87Z"/><path d="M484.33,51.88a1.5,1.5,0,0,0,.39-1.3c-.34-.73-2.48-.67-2.87,0C481.36,51.63,483.5,52.68,484.33,51.88Z"/><path d="M482.19,56.19c-2.09,0-4,.18-4.18.43-.39.49,3.45,2.4,6,3C485.93,60,486,60,486,58.1V56.19Z"/><path d="M476.89,61.73c-.39,0-.63.68-.63,1.66s-.14,2.77-.29,4.07c-.29,2-.19,2.28.49,1.91s.82-1,.72-2.71a6.4,6.4,0,0,1,.44-3.2C478.25,62.47,478,61.73,476.89,61.73Z"/><path d="M482.09,82.79c0-1.48-.24-1.72-.78-.68a1.58,1.58,0,0,0,.25,1.36C482,84,482.09,83.78,482.09,82.79Z"/><path d="M471.64,185.51c-.09,0-.34.25-.48.62s0,.61.48.61.64-.3.49-.61S471.74,185.51,471.64,185.51Z"/><path d="M481.56,207.68a1.34,1.34,0,0,0-1.12.93c-.24.8-.49.86-1.26.3-1.36-.92-2.77.31-1.9,1.6a2.07,2.07,0,0,0,3.35-.06c.34-.49.44-.92.2-.92s.05-.43.58-.92C482.19,207.87,482.24,207.74,481.56,207.68Z"/><path d="M481.7,224.74a2.39,2.39,0,0,0-3.69-.25,2.43,2.43,0,0,0-.78,1.73c.25,1.85-.05,2.46-1.26,3-1.46.74-1.12,1.84.63,1.84.88,0,1.17-.24,1-.86a1,1,0,0,1,.63-1.29,2.27,2.27,0,0,0,1.17-1.3c.2-.73.49-.8,1.26-.24C482.48,228.68,483.31,226.59,481.7,224.74Z"/><path d="M472.32,266.19c-.24,0-.43.24-.43.61a.73.73,0,0,0,.78.62.42.42,0,0,0,.43-.62A.91.91,0,0,0,472.32,266.19Z"/><path d="M477,280.1l.29,2.16.88-1.42a5.84,5.84,0,0,0,.77-3.14c-.09-.92,0-1.66.2-1.66a5.43,5.43,0,0,0,.14-2.46c-.19-2.71-.72-3.15-1.55-1.24a4.29,4.29,0,0,0-.39,2,8.21,8.21,0,0,1-.29,2.15A10.77,10.77,0,0,0,477,280.1Z"/><path d="M476,301.66c-.29-1-1.26-1.3-1.8-.56a3.83,3.83,0,0,0-.34,1.85c0,1.11.24,1.42,1.22,1.42C476.26,304.37,476.55,303.57,476,301.66Z"/><path d="M477,308.37c0-1.54-1.17-1.85-2.43-.68-.73.68-.83,1.11-.44,1.6A1.62,1.62,0,0,0,477,308.37Z"/><path d="M479.32,320.26c1.36-.25,1.22-2.65-.29-4.68-.87-1.17-1.7-1.73-1.85-1.24C476.46,317.48,477.57,320.56,479.32,320.26Z"/><path d="M474.9,323c.29,1.1,1.36,1.29,1.36.24a.89.89,0,0,0-.78-1A.56.56,0,0,0,474.9,323Z"/><path d="M480.15,323.77a1,1,0,0,0,.48-.68c0-.12-.19-.25-.48-.25s-.49.31-.49.68A.29.29,0,0,0,480.15,323.77Z"/><path d="M483.36,493.43a.89.89,0,0,0-.78,1c0,1,1.07.86,1.36-.24A.56.56,0,0,0,483.36,493.43Z"/><path d="M475.05,539.67a1,1,0,0,0-.05,1c.39.49,1.75-.31,1.75-1S475.43,538.81,475.05,539.67Z"/><path d="M478.4,645.66c-.24-2.71-.49-3.82-1-3.82a1.22,1.22,0,0,0-1,.92,17,17,0,0,0,0,4.5,66.14,66.14,0,0,1,.44,7c.05,3.57.34,4.62,1.17,3.94C478.64,657.79,478.79,651.26,478.4,645.66Z"/><path d="M483.6,652.93c-.24,0-.54.43-.73.92s0,.92.44.92a.86.86,0,0,0,.73-.92C484,653.36,483.84,652.93,483.6,652.93Z"/><path d="M483.4,659.52c-.53.61-.38,3.87.15,3.87.29,0,.49-1,.49-2.15C484,659,483.94,658.78,483.4,659.52Z"/><path d="M483.06,664.63a.61.61,0,0,0,.49.61.57.57,0,0,0,.49-.61c0-.37-.2-.62-.49-.62A.57.57,0,0,0,483.06,664.63Z"/><path d="M483.06,668c0,1,.25,1.6.73,1.6a.8.8,0,0,0,.73-.86,3,3,0,0,0-.73-1.6C483.16,666.41,483.06,666.6,483.06,668Z"/><path d="M478.2,667.09a.56.56,0,0,0-.48.62c0,.3.24.61.48.61a.56.56,0,0,0,.49-.61C478.69,667.34,478.5,667.09,478.2,667.09Z"/><path d="M484,673.68c.05-1.66-.1-2.9-.44-2.9s-.49.56-.49,1.24a6.58,6.58,0,0,1-.53,2.34c-.63,1.29.24,4.68,1.17,4.25a1.06,1.06,0,0,0,.38-1.11A27.63,27.63,0,0,1,484,673.68Z"/><path d="M452.64,683.72a.42.42,0,0,0-.43.61c.19.37.53.5.77.31C453.66,684.09,453.52,683.72,452.64,683.72Z"/><path d="M342.82,685c-.54,0-.68.19-.29.37a.82.82,0,0,0,.92-.06C343.64,685.13,343.35,685,342.82,685Z"/><path d="M384.37,691.66c-2.19.86-5.15.86-5.54.06-.15-.31-2.24-.61-4.62-.61-4.32,0-5.83-.31-5.83-1.23,0-.31.44-.74,1-.93s1-.68,1-1c0-.74-2-.68-2.91.06a3.46,3.46,0,0,1-1.8.61,2,2,0,0,0-1.56,1.05,2.46,2.46,0,0,1-2.33,1.17c-1,.06-3.25.37-5,.68-2.92.49-3,.61-1.61,1a4.85,4.85,0,0,0,2.43.13c2.29-.86,14-.93,19.1-.06,4.37.67,6.22.74,9.62.18l4.23-.74-2.14-.55A6.67,6.67,0,0,0,384.37,691.66Z"/><path d="M394.57,689.88c-.24,0-.34.24-.19.61s.39.62.53.62.2-.31.2-.62A.56.56,0,0,0,394.57,689.88Z"/><path d="M406.72,690.61c-.87-.73-1-.67-.82.31a1.59,1.59,0,0,0,1,1.3C408,692.52,407.94,691.6,406.72,690.61Z"/><path d="M393.89,691.11c-.09,0-.34.24-.48.61s0,.62.48.62.63-.31.49-.62S394,691.11,393.89,691.11Z"/><path d="M437.19,691.11c-1.07,0-1.31.18-.92.67s.77.5,1.46,0S438.41,691.17,437.19,691.11Z"/></g></g></svg>