<svg xmlns="http://www.w3.org/2000/svg" viewBox="0 0 685.44 693.03"><g id="Camada_2" data-name="Camada 2"><g id="Camada_1-2" data-name="Camada 1"><path d="M442.31,689.38a1,1,0,0,0,1.1,1c.62,0,1-.31.82-.74C443.82,688.52,442.31,688.34,442.31,689.38Z"/><path d="M220.33,3c.62-.12,1.17-.62,1.17-1A1.2,1.2,0,0,0,219.57,1C218.61,1.87,219.09,3.16,220.33,3Z"/><path d="M85.17,3.41c.75-.43.27-1.54-.69-1.54a1.53,1.53,0,0,0-1,.56C83,3.16,84.27,3.9,85.17,3.41Z"/><path d="M87.36,5.44a2,2,0,0,0,1.79-1.29c.27-1.23-1.24-1.42-2.47-.31S85.71,5.69,87.36,5.44Z"/><path d="M234.89,5c.76,0,1.37-.43,1.37-.92s-.61-.93-1.37-.93-1.37.43-1.37.93S234.13,5,234.89,5Z"/><path d="M8.79,14.68c1.44-.25,1.31-1.35-.14-1.6-.68-.12-1.09.18-1.09.8S8,14.8,8.79,14.68Z"/><path d="M7.9,23.55c0,2,.89,2.95,2.47,2.95s1.65-.8.21-2.77S7.83,21.76,7.9,23.55Z"/><path d="M9.41,57.3H12l-1.85-1.54a6.8,6.8,0,0,0-2.61-1.54c-.35,0-.69.67-.69,1.54C6.87,57.11,7.14,57.3,9.41,57.3Z"/><path d="M685.44,57.36V55.45H685V3.07h-.52c-.54-.06-2.38,0-4.13.06a8.24,8.24,0,0,1-3.79-.49.73.73,0,0,0-1.17.12c-.73.93-2.67,1-3.06.13s-5.45-.8-5.83-.06c-.15.3.43.73,1.31.86S668,4,666.29,4c-2.62.12-3,0-2.48-.8.93-1.42.1-2.1-2.33-1.85L659,1.58c-.09.07.2.62.68,1.3s.68,1,.6,1.09a7.36,7.36,0,0,0-1.23,0,.82.82,0,0,1-.58-.7c0-1.73-2.14-2.28-7.87-2.1-4.57.13-5.84.31-6.32,1.11-.39.62-1.7,1.17-3.31,1.42a5.36,5.36,0,0,0-2.94,1l-3.51.05a.69.69,0,0,0-.52,0l-4.88.06c-.82,0-1.65,0-2.49,0a1.6,1.6,0,0,0-1-.06,3.2,3.2,0,0,1-.43.05c-1.13,0-2.26,0-3.37-.08a68.67,68.67,0,0,1-8.45-1c-1.85-.43-2.09-1.66-.49-2.65.88-.55.54-.67-2-.67-3.06-.07-3.11-.07-2.23,1.17.78,1,.78,1.23.09,1.23a1.19,1.19,0,0,1-1-.8c-.14-.56-.53-.56-1.84,0-1.07.55-1.8.55-2.09.18-.71-.89-3.81-.75-4.28.15-.32-.13-.65-.29-1-.48C595,0,592.65.33,595,2.43c.49.44.26.6-1.2.51.85-1-.25-1.36-4-1.48-3.07-.05-4.27.54-2.76,1.29a2.84,2.84,0,0,0-.91.41l-.37.25c-.59-.09-.63-.38-.43-1.15.25-1,.1-1.23-1.16-1.23-1,0-1.51.31-1.51.92s-.49.93-1.26.93a10.52,10.52,0,0,0-3.21.74c-1.41.55-2,.55-2.43,0-1-1.3-2.63-.87-3.21.8l0,.07-2.94,0c-1.46-1.41-5.56-2.14-6.12-1-.24.5-.63.37-1.41-.49C561,1.77,557.88.72,557.88,1.58c0,.31-.44.68-1,.87s-.88.61-.69,1-.38.68-1.65.68-2-.31-2-.62-.19-.61-.49-.61-.48.37-.48.86-.42.66-1.17.92c-25.9.09-38.25-.74-45.58-2.91C499.79.27,491,0,475.28.76c-4.74.25-15,.62-23,.8s-17.79.56-22,.74-8.38.43-9.41.37c-1.37,0-1.92.31-1.92,1.11a1.33,1.33,0,0,0,.82,1.29.67.67,0,0,1,.28,1c-.42.56-.76.56-1.52,0s-1-.55-1,.06-.62.62-1.85.31c-2.41-.49-3-1.42-2.06-2.89,1.3-1.91-.55-2.41-6.8-2-4.53.3-5.63.18-6-.56-.55-1.35-9.41-1.48-9.41-.06,0,.68-.41.86-1.3.55a3,3,0,0,0-2.82.93c-1.44,1.29-1.51,1.29-2.81.24-1-.8-1.51-.92-2.13-.37a3.64,3.64,0,0,1-2.2.74c-1.24,0-1.3-.12-.41-.67s.75-.56-.35-.19c-3.22,1-6.52.92-10.78-.43-5.84-1.91-16.41-1.91-22.11,0-3.16,1-4.4,1.17-7.15.74-7-1.23-8.58-1.29-7.69-.37.69.74.62.92-.55.92a2.9,2.9,0,0,1-2.13-1c-.55-.93-.89-1-2.26-.25s-7.15,1-15.32.86c-.76-.06-3.37,0-5.84.06s-4.87-.18-5.35-.49a1.29,1.29,0,0,0-1.65.12c-1,.93-3.78,1-4.33.13s-7.69-.8-8.24-.06c-.21.3.62.73,1.85.86s.28.31-2.13.31c-3.71.12-4.25,0-3.5-.8,1.31-1.42.14-2.1-3.3-1.85l-3.5.24c-.14.07.28.62,1,1.3,1.24,1.17,1.17,1.23-.2,1.23-.83,0-1.51-.37-1.51-.8,0-1.73-3-2.28-11.13-2.1-6.46.13-8.24.31-8.93,1.11-.55.62-2.4,1.17-4.67,1.42s-4.12.74-4.6,1.42c-.76.86-1.17.86-2.61.3-2.34-1-3.09-.92-3.09.19a1,1,0,0,1-1,.92,2.12,2.12,0,0,0-1.58,1.05c-.62.86-.76.86-1.92-.31A4.71,4.71,0,0,0,232,5.57c-1.1,0-1.93-.31-1.93-.68s-.68-.55-1.71-.43c-1.72.31-13-.37-17.31-1-2.61-.43-3-1.66-.69-2.65,1.24-.55.76-.67-2.88-.67-4.33-.07-4.4-.07-3.16,1.17,1.1,1,1.1,1.23.13,1.23a1.66,1.66,0,0,1-1.37-.8c-.21-.56-.75-.56-2.61,0-1.51.55-2.54.55-2.95.18-1-.92-5.7-.74-6.11.25S185.1,4.52,183.17,4c-1.3-.37-1.37-.44-.2-1.17,1.78-1.17.41-1.61-5.29-1.73-4.81-.06-6.39.68-3.09,1.54,1.23.31,1,.37-1,.43-2.34.06-2.61-.06-2.2-1.17S171.5.64,169.71.64c-1.44,0-2.13.31-2.13.92s-.68.93-1.78.93a20.31,20.31,0,0,0-4.54.74c-2,.55-2.81.55-3.43,0a2.89,2.89,0,0,0-4.53.8c-1,1.84-2,2-3.92.31-1.78-1.54-8.1-2.41-8.93-1.24-.34.5-.89.37-2-.49-1.51-1.23-5.9-2.28-5.9-1.42,0,.31-.62.68-1.45.87s-1.23.61-1,1-.55.68-2.33.68c-1.58,0-2.82-.31-2.82-.62a.61.61,0,0,0-.69-.61.8.8,0,0,0-.68.86c0,.86-3.64,1.54-8.93,1.6-1.31.06-5,.12-8.24.19S98.35,5.07,95.6,5c-3.36-.25-5.15-.06-5.49.43a6.27,6.27,0,0,1-3.23.93c-2.26.12-2.75,0-2.68-.87s-.55-1-3.43-1.1c-5.77-.07-9.48,0-13.46.24-9.55.56-20.19.31-21.16-.55a1.71,1.71,0,0,1-.48-1.11c0-1.23-1.37-1-2.06.31s-1,1.41-7.55,1.35c-3.78-.06-8.59-.31-10.65-.55-5.08-.56-8.1,1.17-9.48,5.35-.68,2.16-1.23,2.9-2.54,3.21-2,.43-2.26,1.6-.41,1.6a3.52,3.52,0,0,1,2.34,1.48c1,1.23,1,2.15.41,5.29a17,17,0,0,0-.28,5c.42,1.05.07,1.17-2.95,1.17s-3.71.25-5.29,2-1.65,2-.75,2.46a1.93,1.93,0,0,1,1.1,1.36c0,1.05,1.51,1.6,4.46,1.6,2.27,0,2.27,0,1.92,2.46-.27,1.85-.07,2.78.83,3.7.68.68,1,1.23.68,1.23s-.2.37.14.74c.83,1,.76,3.57-.07,4.74A7.68,7.68,0,0,0,15,51a10.31,10.31,0,0,1-1,4.38,6.85,6.85,0,0,0-1,2.34c0,.86-3.92,1.66-5.08,1-.76-.43.48,1.17,2.13,2.77,1.85,1.79,0,6-2.27,5.24-1.1-.37-1.31.8-.27,1.35s.89,3-.14,3.88c-.62.56-.62,1,0,2.1A16.32,16.32,0,0,1,8,79.65c-.14,3.2.13,4.37.89,4.8.55.25.75.56.41.56s-.27.37.14.74a26.63,26.63,0,0,1,2.13,4.55c1.3,3.58,1.37,4,.34,7-1,3.27-2.06,4.07-2.47,1.91C9.2,97.45,7.9,97.63,8,99.36c.07.74.13,2.4.2,3.63.07,1.85.35,2.34,1.38,2.34,1.23,0,2.13,1.11,2.13,2.65,0,.49-.28.43-.83-.06a2.86,2.86,0,0,0-1.37-.74c-.69,0-.62,12.93.07,15.27s2.13,2.46,2.13,0a5.83,5.83,0,0,1,.61-2.83c.83-1.17,3.23,2.65,3.78,6.09.89,5.49.62,14.29-.55,17.37a16.78,16.78,0,0,0-1.1,4.8c0,1.36-.34,2-1.37,2.22-1.72.43-1.79,1.17-.07,2s1.86,6.28.48,14.6c-.55,3.32-1.44,11.39-1.85,17.86-.83,11-.76,12.74.68,26.48,1.52,14.47,1.52,15,.55,32.57-.89,14.48-1,23.9-.48,49.89.35,17.61.9,33.56,1.31,35.41a42.72,42.72,0,0,1,.68,6.22c.07,1.72.49,3.14,1.1,3.63,1.38,1,1.38,4.68,0,5.17s-1.23,2.28.42,2.65c1.37.31,1.37.62,1,7.82a90.11,90.11,0,0,1-1.52,12.38c-.54,2.71-1.51,7.76-2,11.27-.68,4.31-1.44,7.08-2.47,8.56-1.17,1.66-1.37,2.4-.75,3.26s.41,2.47-.28,6.22a45.15,45.15,0,0,1-1.44,6.1,66.48,66.48,0,0,0-1,8.93c-.35,4.37-.83,10.59-1.17,13.73a35.8,35.8,0,0,0,0,8.62c.27,1.61.82,5.3,1.24,8.26a26.7,26.7,0,0,0,3.5,10.77c3.23,6.28,4.74,11,4.74,14.78a21.56,21.56,0,0,0,1.44,6.22,17.11,17.11,0,0,1,1.37,6.59c-.55,18.54-.75,21.19-2.06,25.56-3.29,11-3.78,12.75-3.78,15a4.45,4.45,0,0,0,1.86,3.88c1.85,1.54,1.85,1.6,2,10.9.07,5.18.14,10.1.14,11a4.79,4.79,0,0,0,1,2.52,2,2,0,0,1,.41,2,2.31,2.31,0,0,0,.48,2c1.51,1.54,1,28.45-.48,31.1-.82,1.42-1.23,4.93-1.71,13.37-.62,11.7-1.17,16.5-1.93,16.93-.27.19-2.13-.25-4.19-.92a29.76,29.76,0,0,0-7-1.17c-3.09,0-3.3.12-3.3,1.54,0,1.66-.21,1.6,11.33,1.78,3.16.06,3.09,0,3.09,3.76,0,2.77,0,2.77-3.77,4.43-2.06.93-3.78,1.91-3.78,2.22,0,.68,3.5,4.87,6.45,7.7,1.93,1.85,2.06,2.28,1.93,6.09-.14,2.34.13,4.25.55,4.5,1,.55,1.1,7.57.07,7.88a1.16,1.16,0,0,0-.14,2.1c.34.12.75,2,.89,4.31.21,3.14,0,4.25-.69,4.49a.86.86,0,0,0-.55,1.23,1,1,0,0,1-.27,1.24c-1,.61-.82,2.15.34,2.15s2.68,2.22,2.06,3.08,2.41,3.7,3.78,3.7c1,0,1,.43.41,3.57-.75,4.19-.34,5.66,1.58,5.66a2.81,2.81,0,0,1,2.13,1.23c.9,1.48,3.37,2.47,6.87,2.78,6,.55,7.62,1,8.24,2.52.55,1.29,1.1,1.48,4,1.48,1.78,0,3.57-.25,4-.62s3.71-.86,7.49-1.23,7.89-.86,9.2-1.17,10.58-.74,20.47-1c17.44-.37,18.06-.31,19.5.86,3.44,2.83,5.84,3.32,13.53,2.77a76.68,76.68,0,0,1,13,0c6.66.68,15.66-.06,38.94-3a77.07,77.07,0,0,1,11.4-.74,96.62,96.62,0,0,0,11.68-.18c4.67-.31,8.79-.31,9.2,0,.83.55,14.77,1.11,14.36.55s6.25-1.11,7.14-.43c.48.37,2.4.49,4.6.31s3.92-.06,4.12.25c.62.86,4.67.67,7.28-.31a11.16,11.16,0,0,1,6.05-.31c2.61.37,4.05.31,4.67-.19s.82-.8.07-1.17-.62-.55.27-.55a2.41,2.41,0,0,1,1.86,1.17c.75,1.17,4.46,2.71,5.08,2.09,1-.8,5.56-1.29,7-.67a4.14,4.14,0,0,0,3.64-.37c1.93-.93,2.13-.86,3,.31.61.92,1.64,1.29,3.64,1.29,4.46.06,10.3-1.66,8.1-2.4-1.37-.43-1-1.42.41-1.42s2.75,1.36,1.58,1.72c-1.58.44-.07,1.36,1.65,1,1.31-.31,1.58-.18,1.24.62-.21.55-.14,1,.27,1a1.29,1.29,0,0,0,1-.8c.21-.55.48-.55,1.24,0,1.17.86,5.29,1.17,7.07.49,1-.37,1.58-.12,2.47.93,1,1.23,1.52,1.35,4.4,1,2.06-.31,3.16-.24,3.16.19,0,1,1.85.8,3.71-.25,3.23-1.91,12.91-1.29,18.89,1.17,1.16.49,19.5.62,64.21.56,72.16-.18,94.59-.4,99-1.11a8.84,8.84,0,0,0,1.41.08,4.77,4.77,0,0,0,2.82-.62c.24-.3,2.62-.86,5.29-1.23A57.75,57.75,0,0,0,510.2,689a24.15,24.15,0,0,1,3.29-.39,2.16,2.16,0,0,0-.37.37c-.41.68-1.58,1.11-3.3,1.17-1.44.06-4.6.37-7.07.68-4.12.49-4.26.61-2.27,1.05a9.81,9.81,0,0,0,3.44.12c3.22-.86,19.78-.93,27-.06,6.18.67,8.79.74,13.6.18l4.87-.6a42.18,42.18,0,0,1,5.25-.11.85.85,0,0,0,.66.22,1,1,0,0,0,.55-.14c.51,0,1,.09,1.45.16a25.07,25.07,0,0,0,4,.23,11.37,11.37,0,0,0,6.69-.53c1.37-.17,2.87-.38,4.55-.63a1.94,1.94,0,0,0,1.21.79c1.27.24,1.41-.31.51-1.06,2.2-.35,4.67-.76,7.47-1.26,4.57.42,6,.76,6.85,1.45,1.51,1.24,2.82,1.3,2.82.13,0-.43,1-1,2.06-1.23,3-.5,2.54-1.61-.62-1.61a10.47,10.47,0,0,1-1.31-.07,7.76,7.76,0,0,1,1.43,0,48.37,48.37,0,0,0,8.26-.18c3.31-.31,6.22-.31,6.52,0,.58.55,10.44,1.11,10.15.55s4.42-1.11,5.06-.43c.34.37,1.7.49,3.25.31s2.77-.06,2.92.25c.44.86,3.3.67,5.15-.31a5.71,5.71,0,0,1,4.28-.31c1.84.37,2.86.31,3.3-.19s.58-.8.05-1.17-.44-.55.19-.55a1.74,1.74,0,0,1,1.31,1.17c.54,1.17,3.16,2.71,3.6,2.09.68-.8,3.94-1.29,5-.67.82.43,1.46.37,2.57-.37,1.36-.93,1.51-.86,2.14.31.44.92,1.17,1.29,2.58,1.29,3.16.06,7.29-1.66,5.73-2.4-1-.43-.73-1.42.29-1.42s1.95,1.36,1.12,1.72c-1.12.44-.05,1.36,1.17,1,.92-.31,1.11-.18.87.62-.14.55-.1,1,.2,1s.58-.37.72-.8.34-.55.88,0c.83.86,3.74,1.17,5,.49.68-.37,1.12-.12,1.75.93.73,1.23,1.07,1.35,3.11,1,1.46-.31,2.24-.24,2.24.19,0,1,1.31.8,2.62-.25l.09-.06v-592a3.5,3.5,0,0,0,.45-1.88,3,3,0,0,0-.45-1.62V59C685.42,58.82,685.44,58.35,685.44,57.36ZM68.68,7.41a25.72,25.72,0,0,1-5.15.5L60.1,7.85l2.74-.44C64.35,7.17,66.69,7,68,6.92,70.12,6.92,70.19,7,68.68,7.41Zm8.24-.61c-1.3.74-2.06.74-2.06.06S77,5.63,77.61,6C77.75,6.12,77.47,6.49,76.92,6.8Zm21,0c-.21,0-.55-.31-.76-.62s-.06-.61.28-.61a.67.67,0,0,1,.75.61C98.21,6.49,98.08,6.8,97.94,6.8ZM134.07,5c-1.51,0-2.48-.8-1.72-1.48s1.37-.43,2.27.56C135.3,4.83,135.23,5,134.07,5ZM261.26,3.16a1.57,1.57,0,0,1-2.61-.36c-.41-1,.21-1.17,1.93-.56C261.2,2.43,261.47,2.86,261.26,3.16Zm7.08.31a1.51,1.51,0,0,1-1.31.06c-.55-.18-.34-.37.42-.37S268.61,3.29,268.34,3.47ZM403.92,4.64A16.51,16.51,0,0,0,407.21,4c.69-.68,1.44-.25,1.44.92s-.48,1.23-4.94,1.23C398.28,6.12,398.42,5.26,403.92,4.64ZM366.07,684.82c.89,0,1.38.31,1.24.74a1.52,1.52,0,0,1-1.24.8,1.33,1.33,0,0,1-1.17-.8C364.7,685.13,365.18,684.82,366.07,684.82Zm-29.81,6c-.48.43-5.28.31-5.83-.19-.14-.12,1.16-.24,3-.24S336.54,690.55,336.26,690.8Zm69-2.9c-1.65,0-3.57,1.91-2.27,2.28,1.79.56.76,1.54-1.37,1.23a38.06,38.06,0,0,0-6.59.31,18.78,18.78,0,0,1-5.5.13,4.09,4.09,0,0,0-1.72-.31c-.34.06-11.4.24-24.58.37-19,.24-24,.12-23.84-.5.21-.37,1.86-.86,3.78-1a13.84,13.84,0,0,0,4.47-1c.68-.55,1.64-.62,3.5-.12a11.53,11.53,0,0,0,4.81.12c2.26-.55,8.24-.55,9.2,0,.27.19,5.84.37,12.22.43,11.27.06,16.83-.37,18.89-1.54.89-.49,4.95-1.17,9.14-1.48.61,0,1.16.19,1.16.56S406,687.9,405.29,687.9Zm3.84,1a1.52,1.52,0,0,1-1.3.06c-.55-.18-.34-.37.41-.37S409.41,688.7,409.13,688.89ZM653.32,3.55c.53-.06.82.13.63.31a.79.79,0,0,1-.92.06C652.64,3.74,652.78,3.55,653.32,3.55Zm-4.86-.92a.73.73,0,0,1,.48.92c-.39.87-1.5.68-1.84-.36S647.24,2,648.46,2.63ZM557.73,3.86c.49-.61,1-.43,1.6.56a1.3,1.3,0,0,1,.11.19H557.6A.73.73,0,0,1,557.73,3.86ZM453.3,681.93c1.71,0,2.4.12,1.58.25a13.3,13.3,0,0,1-3.09,0C450.89,682.05,451.58,681.93,453.3,681.93Zm-19.58-676A4.71,4.71,0,0,1,437,5.63a3.38,3.38,0,0,0,2.2.18c.62-.18,1.1-.06,1.1.31s-1.58.68-4.26.68C431.8,6.74,431.73,6.74,433.72,5.94Zm-5.08-.62c1.17-1.17,2.2-1.29,1.85-.25a2.08,2.08,0,0,1-1.57,1C427.88,6.31,427.82,6.18,428.64,5.32Zm1.1,686c-8.86.49-14.42,0-16-1.6-1.45-1.42-.83-1.54,1.44-.18,1.44.86,1.65.86,2.2,0,.82-1.3,8.51-2.71,14.28-2.59l4.81.06.21,1.91.2,2Zm10.44-.12c-.34-.31,0-1.11.75-1.91a4.14,4.14,0,0,0,1.38-1.91c0-.55,1.1-1.11,2.26-1.23.28-.06,1.45.86,2.61,1.91a9.93,9.93,0,0,1,2,2.4C449.18,691,440.8,691.72,440.18,691.17Zm15.86-.68c0-.31-.82-.8-1.85-1.17l-1.92-.68,1.92-.06c3.37-.12,2-1.29-1.51-1.29-2.95,0-4.95-.74-4.05-1.54.41-.37,13.53-1,21.77-1,7.07-.06,7.83-.12,8.1-1.23a1.28,1.28,0,0,1,.79-.85c.17.92.58,1.3,1.27,1.3a2,2,0,0,1,1.51,1.23c.63,1.48,2.38,2.47,4.86,2.78,4.27.55,5.39,1,5.83,2.52a3.46,3.46,0,0,0,.29.73c-2.58-.16-7.87-.22-16.88-.26C465.11,691,456,690.74,456,690.49Zm78,.49c-.21-.3-3.16-.61-6.53-.61-6.11,0-8.24-.31-8.24-1.23,0-.31.62-.74,1.37-.93l.24-.07c1.24-.06,2.54-.11,3.85-.15,12.34-.37,12.78-.31,13.8.86a8.71,8.71,0,0,0,2.63,2.25C538.13,691.78,534.51,691.72,534,691Zm55.63-1.84a1.53,1.53,0,0,1-1.1.61.64.64,0,0,1-.62-.61c0-.37.48-.62,1.1-.62S589.84,688.77,589.63,689.14Z"/><path d="M6.87,561c.82,0,1.23-.3,1-.61a1.32,1.32,0,0,0-1-.62,1.29,1.29,0,0,0-1,.62C5.63,560.74,6,561,6.87,561Z"/><path d="M616.48,690.37c-1.51,0-1.85.18-1.3.67s1.1.5,2.06,0S618.2,690.43,616.48,690.37Z"/></g></g></svg>