<svg xmlns="http://www.w3.org/2000/svg" viewBox="0 0 1183 726"><defs><style>.cls-1{opacity:0.9;}</style></defs><g id="Camada_2" data-name="Camada 2"><g id="Camada_1-2" data-name="Camada 1"><g class="cls-1"><path d="M2.14,509.58c1.79-1.16,2.11-1.16,2.11-.14a1.82,1.82,0,0,1-1.37,1.45c-.95.22-.95.8,0,2.77,1,1.6,1,2.69.32,3.12-1.58,1.1-1.27,6,.42,6.48S7.72,530,6.77,532c-.63,1.38-.74,1.45-2,.22-2-1.9-2.73-.44-2.94,5.6-.11,5.09,1.15,6.76,2.63,3.27.52-1.31.63-1.09.73,1.09.11,2.48-.1,2.77-2,2.33s-2.11-.15-2.11,1.75c0,1.52.53,2.25,1.58,2.25s1.58.73,1.58,1.89a14,14,0,0,0,1.26,4.8c.94,2.11.94,3,0,3.64-2.21,1.53-1.47,3.93,1.36,4.8,3.16,1,3.37,2.11.53,4.15-2.63,1.89-4.1,8.58-2.1,9.46.84.36.63.94-.84,2.1C2.35,581,.57,585.6,2,585.6c.52,0,1.16.66,1.47,1.53s1,1.31,1.68,1,1.16.58,1.16,2.47c0,1.67-.53,3-1,3s-1,.29-1,.73.63.73,1.47.73c1.47,0,2.63,3.85,2.73,9.45.11,1.39.21,5.32.32,8.73s-.11,8.59-.32,11.5c-.42,3.56-.1,5.45.74,5.82.63.29,1.36,1.82,1.57,3.42.21,2.4,0,2.91-1.47,2.83s-1.78.59-1.89,3.64a114.87,114.87,0,0,0,.42,14.26c.95,10.11.53,21.39-1,22.4a3.77,3.77,0,0,1-1.89.51c-2.1,0-1.78,1.46.53,2.19s2.42,1.09,2.31,8a89.21,89.21,0,0,1-1,11.27c-.94,5.39,2,8.59,9.15,10,3.68.73,4.94,1.31,5.47,2.69.73,2.11,2.73,2.41,2.73.44,0-.73,1.16-1.89,2.52-2.47,2.1-1,3.68-1.09,9-.44a46.57,46.57,0,0,0,8.52.29c1.78-.43,2-.07,2,3.13s.43,3.93,3.37,5.6,3.47,1.75,4.2.8A3.44,3.44,0,0,1,56.18,718c1.78,0,2.73-1.6,2.73-4.73,0-2.4,0-2.4,4.2-2,3.16.29,4.73.08,6.31-.87,1.16-.73,2.1-1.09,2.1-.73s.63.22,1.27-.14c1.68-.88,6.09-.8,8.09.07a20.54,20.54,0,0,0,6.1.58,26.86,26.86,0,0,1,7.46,1,16.66,16.66,0,0,0,4,1c1.47,0,2.83,4.14,1.78,5.38-.73.8,2-.51,4.73-2.25,3-2,10.3,0,8.94,2.4-.63,1.16,1.36,1.38,2.31.29s5-1,6.62.14c1,.66,1.79.66,3.58,0,1.36-.43,5.67-.72,9.56-.65,5.47.14,7.47-.15,8.2-1,.42-.58,1-.8,1-.43s.63.29,1.26-.15a59.3,59.3,0,0,1,7.78-2.25c6.1-1.39,6.83-1.46,11.88-.37,5.57,1.09,6.94,2.18,3.26,2.62-2.95.29-2.63,1.67.31,1.6,1.26-.07,4.1-.14,6.2-.22,3.16-.07,4-.36,4-1.45,0-1.31,1.89-2.26,4.52-2.26.84,0,.74.29-.11.88S183,715.67,183,716c0,.73,22.08.66,26.07-.07s4.21-2.26,0-2.26a15.14,15.14,0,0,1-4.83-.65c-2-.87,4.52-3.42,10.4-4,9.36-1,24.39-.66,29.65.58a44.37,44.37,0,0,0,8.2,1.16c2.31,0,3.36.37,3.78,1.46.74,1.82,2,1.89,3.37.07s10.72-2,24.91-.51c5.68.58,19.45,1.53,30.49,2,18.71.87,21.76.8,45.2-.73,24.7-1.6,25.65-1.6,55.61-.58,24.7.94,40.78,1,85.15.51,30.06-.37,57.29-.95,60.44-1.39s8-.72,10.62-.72c2.94-.08,5.36-.51,6.2-1.17,1.68-1.45,8-1.45,8.83,0s3.89,1.31,4.52-.43c.53-1.46,1.05-1.46,13.35-1.1,6.94.22,16.51.95,21.13,1.6s13.25,1.61,19.24,2.11c7.36.73,12.09,1.53,14.61,2.62,2.84,1.24,4.1,1.46,5.57.8,1.26-.51,4.21-.43,10.62.29,4.83.59,9.56,1.24,10.41,1.53s7.67.73,15.24,1,18.08.87,23.44,1.24a98.35,98.35,0,0,0,14.72,0c2.73-.29,9-.88,14.08-1.31a66.87,66.87,0,0,0,18.4-3.71c10.72-3.42,18.82-5,25.23-5a57.1,57.1,0,0,0,10.62-1.53,44.87,44.87,0,0,1,11.24-1.45c31.65.58,36.17.8,43.63,2.18,18.71,3.49,21.76,4,25.54,4a9.88,9.88,0,0,0,6.63-2c2.63-2,2.73-2,18.6-2.11,8.83-.08,17.24-.15,18.72-.15a11.48,11.48,0,0,0,4.31-1,4.9,4.9,0,0,1,3.36-.43,5.89,5.89,0,0,0,3.47-.51c2.63-1.6,48.56-1.1,53.08.51,2.42.87,8.41,1.3,22.82,1.81,20,.66,28.17,1.24,28.9,2,.32.29-.42,2.26-1.57,4.44a21.09,21.09,0,0,0-2,7.42c0,3.27.21,3.49,2.63,3.49,2.84,0,2.73.22,3.05-12,.1-3.35,0-3.28,6.41-3.28,4.73,0,4.73,0,7.57,4,1.57,2.19,3.26,4,3.78,4,1.16,0,8.31-3.71,13.14-6.84,3.16-2,3.89-2.19,10.41-2,4,.15,7.25-.15,7.67-.58,1-1,12.93-1.17,13.46-.07.42.94,3,1.09,3.57.14.21-.36,3.47-.8,7.36-.94,5.36-.22,7.26,0,7.68.72a1.77,1.77,0,0,0,2.1.58,2.38,2.38,0,0,1,2.1.3c1,1.09,3.68.87,3.68-.37s3.78-2.83,5.26-2.18,6.3-2.55,6.3-4c0-1,.74-1.09,6.1-.44,7.15.8,9.67.37,9.67-1.67,0-.8.95-1.82,2.1-2.26,2.53-.94,4.21-3.56,4.73-7.27,1-6.4,1.79-8.08,4.31-8.73,2.21-.58,2.53-1.16,2.53-4.22,0-1.89-.42-3.78-1-4.22s-1.48-3.93-2.11-7.93a79.61,79.61,0,0,0-2-9.75c-.53-1.45-1.27-11.2-1.69-21.67-.63-18.48-.52-19.14,1.48-20.66,4.83-3.64,5.67-6.19,4.73-14.33a50.72,50.72,0,0,1,0-13.83c1.15-7.05-.11-16.58-5.15-41.24-1-4.8-1.58-10.26-1.27-12.08s.21-7.35-.31-12.37-.53-9.31,0-9.74c.94-.88,1.89-15.64.94-15.21-1.15.51-1.89-6.62-.73-7.56.63-.51.84-2.55.52-4.88-.31-2.18-.1-4.14.43-4.36,1.47-.66,1.15-4.95-.53-7.71-1-1.82-1.26-3.49-.53-6.4s.53-4.3-.31-4.95c-1-.8-1.37-.87-2-.07s-.94.65-.94-.29c0-.73.94-1.6,2-2,2-.8,4.63-4.73,3.58-5.38-1.37-1-2.21-5.89-1.16-7.42.74-1.24.63-2.18-.63-3.86-1.58-2-1.47-2.25.53-3.2,1.57-.65,2.2-1.74,2.2-3.85.11-4.73-2.84-10.92-4.1-8.59-.73,1.46-2.41,1.09-2.41-.43,0-1.68,2.31-2.91,2.94-1.68.73,1.68,2.31.08,1.68-1.74-.53-1.38-.31-1.68,1-1.31,1,.22,1.68.14,1.68-.29s-.63-.88-1.36-1.09c-1-.22-1-.51,0-1.31,1.47-1.24,2-5.61.84-7.5-.63-1-.21-1.67,1.57-2.62,2.11-1.09,2.32-1.6,1.69-4.65-.53-2.18-.42-3.35.31-3.35,1.68,0,1.37-2-.42-3.93-3.26-3.41-2.21-13.67,2-20,.84-1.24,1-20.66,1-68-.32-82.85-.74-103.81-2.21-105.62-1-1-1.16,3.92-1.26,19.86,0,11.71-.42,21.31-.84,21.31s-1.37.87-2,2l-1.16,2-.1-2c-.21-3.56-2.21-2.11-2.21,1.6,0,3.13-1.26,5.24-2.63,4.3-.63-.44-1.68-14.33-1.68-23.06-.11-7.5-.21-8.3-2.1-8.59-1.69-.36-2-1.09-2.11-5.24a32.31,32.31,0,0,0-.42-6,2.81,2.81,0,0,1,.63-2.18c.74-.8.95-.73.95.22a1.24,1.24,0,0,0,1.16,1.3c.94,0,1-2.25.52-8.22-1-11.85-.84-20.15.42-21.31a1.83,1.83,0,0,0,.53-2.33c-.32-.8-.74-8.07-1-16.15-.42-14.69-.32-15,3.26-17.6a2.36,2.36,0,0,0,.63-2.48c-.21-1,.42-2,1.89-2.69,1.26-.58,2-1.45,1.68-1.89-1.16-1.23,1.68-3.78,3.26-2.91,2.42,1.46,3.68-.14,3.26-3.78-.42-2.77-1.16-3.93-3.47-5.09-2.73-1.53-2.84-1.82-2.31-6.77,1.15-10,1.68-12.22,3.26-13.46,2.1-1.6,2.2-3,.21-3-.74,0-1.69-1-2.11-2.18-.84-3.13-2.73-2.69-2.73.65,0,2.91-1.47,4.44-3.26,3.2s-1.26-11.63,1-14.18c1.26-1.46,1.36-2.26.63-2.77s-.84-2-.32-4.21c1.16-3.93-.42-5.9-2.1-2.84-1.37,2.4-1.89,2.4-5.68.14-2.41-1.45-2.83-2.32-2.83-5.38s.31-3.56,1.68-3.2,1.57.07.94-2a8.43,8.43,0,0,0-1.68-3.27c-1.15-.95-.73-6.77.42-8.08.42-.5.32-2.25-.31-3.85-1.48-3.78-1.48-13.6-.11-16.22,3.05-5.53-.21-10.55-8.09-12.52-5.26-1.38-8.52-1.52-12.93-.72-2.32.43-2.84.22-3.47-1.24s-.74-1.67-2.21-.29S1133,22,1122,22c-6.83-.15-12.82-.51-13.35-.87-1.36-1-2.94-1-6.62.14-5.89,1.6-11.14,2.11-12,1.17s-10-1-13.35-.22c-1.68.29-2.32.14-2.32-.58,0-1.17,4.52-2.33,7.68-2,1.68.14,1.89-.15,1.26-2-.63-2.18-.53-2.25,2.84-2.25s7.15-1.39,7.15-2.7c0-.8-51.41-.43-63.6.51-7.26.59-15.14,1-34.38,1.75a15.8,15.8,0,0,0-5.25.95c-1,.58-2.84.65-5.05.36-5.68-.87-26.59.07-27.12,1.09-.21.66.74,1,2.84,1,3.68,0,5.15,1.09,2.42,1.82-.95.29-10.52.65-21.24.87-18.08.36-19.87.29-24.7-1.09-3-.88-7.36-1.89-10-2.4a71.58,71.58,0,0,1-7.67-1.82c-2.84-1-2.84-1.17-2.32-6,.64-4.44.53-4.73-.94-3.49A10.25,10.25,0,0,0,894,10.62c-.32,1.75-1.06,3.2-1.58,3.2s-3.26-.65-6.31-1.45a70.65,70.65,0,0,0-11.88-1.89,86.65,86.65,0,0,1-10.61-1.39c-6-1.38-20.29-2.47-40.37-2.91-9.46-.21-17.56-.51-17.87-.65-3-1.24-10.09-1.09-17.14.36-8,1.68-14.92,1.89-17.13.66-.63-.37-6.94-.73-13.88-.8-12.61-.15-16,.29-25.44,3.12-3.36,1-5.25,1.24-6.83.73s-5.15-.22-11.67.66c-5.25.72-12.51,1.6-16.19,1.82-4.41.36-7.36.94-8.72,1.89-2.31,1.6-5.89,1.74-6.73.22s-2.21-1.39-2.84.29c-.31.87-1.26,1.31-2.94,1.16-3.79-.29-3.79-.29-4.42-1.75-.42-1.23-2.94-2.47-8.72-4.36C660,8.66,641.91,7.13,633.19,7c-4.52-.07-7-.43-8.41-1.38-2.73-1.67-6.2-1.6-6.94.22a2.44,2.44,0,0,1-2.1,1.45,2.67,2.67,0,0,0-2.21,1.17C612.69,10,610.8,9,610.8,7a5.92,5.92,0,0,0-2-3.42c-1.68-1.45-2.42-1.6-4.94-1-3.47.87-4.42,3.92-2.21,6.83,1,1.39,1,1.82-.1,2A2.19,2.19,0,0,0,600.18,13c-.1,2.11-1.79-1.24-2.52-4.95-.84-4.87-1.79-5.45-7.57-5.31-2.73.07-6.2.07-7.67.07-10.94,0-14.2.22-14.51.88-.21.36-2.1.72-4.21.8-4.52.07-10.09,2-10.51,3.78-.21.65.95,2,2.52,3.06,2.95,1.89,2.95,1.89,1.06,4.07-1.06,1.24-1.58,2.76-1.16,3.56.42,1,.21,1.46-1,1.46s-1.36-.44-1-1.09c.53-.8-.1-1.09-2.21-1.09s-2.73.29-2.2,1.09-.11,1.09-1.47,1.09-2.11-.51-2.11-1.46c0-2-1.89-1.89-2.31.15s-3.47,2.55-22.92,3.05c-15,.37-44.25,1.61-46.78,1.9a10.51,10.51,0,0,1-2.1,0c-3.57-.51-10.62.29-11.77,1.31s-1.26,1.09-1.37.07-2.1-1.17-16.29-1.24c-11.78-.07-16.3.15-16.3.73s-.31.65-1.26,0c-1.57-1.09-5-1.16-5-.07,0,.58-.42.58-1.37.14-1.89-1.09-8.83-1.82-9.57-1.09s-3.25.58-12-.73c-4.63-.72-5.36-1-4.84-2.18.64-1.53-1.15-3.49-3.36-3.49-.95,0-1.47.8-1.47,2.18,0,2-.32,2.18-3.15,2.18-2.11,0-3.47-.43-3.89-1.31-.42-.65-2.11-3-3.79-5.09-2.52-3.05-3.36-3.64-4.52-3-2,1.16-1.79,3.56.32,4.73,1.57.73,1.68,1.09.52,1.89s-1.78.51-3.89-1.24l-2.63-2.18-2.1,1.67c-1.78,1.46-3.36,1.82-10.51,2.11-6.52.37-8.41.22-8.41-.51,0-1.52,3.15-3.56,4.84-3.12,1.89.5,1.89-.37-.11-1.75-1.16-.73-1.47-1.82-.95-3.49.74-2.84-1.05-4-3.57-2.33-1.26.95-1.37,1.38-.31,2.26s.94,1.38-.11,2.54c-2,2.18-3.36,1.89-4.94-1.09-1.16-2.25-1.16-2.76.42-4s1.68-1.38.1-1.82a4.78,4.78,0,0,0-3,.36,2.26,2.26,0,0,1-2.42.08c-1.05-.73-11,.22-15.87,1.52-4.21,1.1-5.89,3.86-4.84,7.72.74,2.69,1.37,3.41,2.73,3.27a2.14,2.14,0,0,1,2.42,1.67c.32,1,.53,2,.32,2.18-1.06.73-20.71.44-23.55-.29-1.79-.51-10.41-1-20.39-1.16-15.25-.22-17.56-.07-18.61.95-1.26,1.16-1.37,1.16-2.1-.08-1-1.67-3.89-2.47-11.67-3.13a59.5,59.5,0,0,1-6.84-.72,5.22,5.22,0,0,0-2.31.14c-2,.51-2.31,2.62-.42,2.4A26.83,26.83,0,0,1,237,21c1.57.08,1.68.29.63,1.17-1.48,1.23-4.94,1.45-7.26.43-.94-.43-1.05-.8-.21-1.09,2.21-.94,1.16-3.49-2.52-6s-3.89-2.54-9.15-2c-3,.29-6.3,1-7.25,1.6-1.26.73-4,.94-10.51.8l-8.83-.22-.32-3.06c-.31-2.61-1-3.49-4.73-5.67s-5-2.62-7.67-2.33-3.68,0-6.1-2.11C170.86.58,169.5,0,166.76,0c-3.89,0-5.88,2-5.88,5.82,0,1.82.73,2.33,4.73,3.64,5.25,1.67,5.46,1.89,3,3.78-1.69,1.16-1.9,1.16-3,.15-1-1-1.68-1-3.37-.44-1.47.58-2.41.58-3.25,0s-1.58-.58-2.84.14-1.9.8-2.53.15c-.42-.44-2.73-.73-5.36-.66s-8.41,0-13-.21c-6.84-.44-8.94-.29-12.3.87-5.05,1.67-5.26,2.69-.74,2.91,1.89.07,4.42.22,5.57.29s3.68.15,5.68.22c3.57.07,3.57.07,1.68,1.53-2.2,1.67-4,1.6-17.34-.29-4.31-.66-11.25-1.68-15.25-2.26-9.14-1.38-16-1.38-20.6-.07a64.37,64.37,0,0,1-9.35,1.53,97.74,97.74,0,0,0-12.41,2.32c-5.89,1.68-6.83,1.75-8.41.8a4.74,4.74,0,0,0-3-.8,1.91,1.91,0,0,1-1.89-1.23c-.63-1.46-.84-1.46-2.63-.37-1.47.88-2.84,1.09-5.25.73-2.74-.44-3.68-.15-5.79,1.38-2.73,2-4.2,2.33-5.25,1.17-.84-1-7.15-1-8.52,0a13.8,13.8,0,0,1-5.15.94c-5.67.29-8.41,2.77-7.25,6.69a80,80,0,0,1,.95,12c.1,5,.31,13.53.42,18.91.31,9.46-1.27,20.59-3.16,22.26-.52.44-.63,2.33-.31,4.15.52,2.69.21,3.85-1.58,6C0,95.81.57,98.28,4.14,95.81c1.05-.73,1.16,0,.53,3.63-.53,3.35-.32,4.88.73,5.75,2.11,1.75,2.21,3.86,2.53,33.75.31,30.27-1.06,44.23-4.95,52.38-2.52,5.31-3,14.62-1.68,31.28.42,5,1.05,15.93,1.37,24.37s1,18.84,1.26,23.28a96.68,96.68,0,0,1,.63,10c0,1.45.53,2,1.89,2,1,0,2-.36,2.21-.87s1.05-.58,1.79-.29c.94.43.94.8,0,1.6s-.95,1,.1,1c.84,0,1,.65.53,2-.84,2.55-2.42,3.2-4.94,2.18-3.26-1.38-4.1.59-3.37,7.21.53,4.8.32,6-.94,6.32-2.31.59-2.52,10-.11,10,1.16,0,1.48.44,1,1.38s.1,2,1.58,3c2.2,1.52,2.2,1.6.42,3C3.3,319.79,3.09,320.3,4,321a3.14,3.14,0,0,1,1.26,2.33c0,1.31-.21,1.38-1.16.44s-.94-.8-.31.36C5.61,327.5,5.4,331,3.09,335.5c-3.26,6.19-3.26,17.39,0,23.43,1.79,3.34,2,4.65,1.26,7.56-2.1,7.42-2.21,9.09-.63,8.15,1.26-.73,1.58-.66,1.58.58a2.92,2.92,0,0,1-1.79,2.26c-1.58.58-1.68.94-.42,2.4s1.68,7.56,1.47,16.22c-.1.8,0,3.56.11,6.18s-.32,5.17-.84,5.68-.53,1.23.21,1.74c1.57,1.09,1.68,4,.21,4.59s-1.37,8.14-.11,8.72c.53.22,1.26-.65,1.47-2s.53-.29.53,2.26c.21,3.92,0,4.51-1.37,3.71-2.42-1.39-3.57-.15-3.15,3.49.21,1.89.42,3.56.42,3.71s1-.29,2.21-1c2-1.31,2.1-1.24,2.1.22A1.52,1.52,0,0,1,5,435c-2.94,0-3.89,3.2-3.57,11.78.21,6.84.52,8.73,1.89,9.46,1,.58,2,2.55,2.42,4.95s1.26,4.36,2.42,4.87c1.47.8,1.47,1.24.52,2.76-1.68,2.48-1.58,3.28.32,3.28.84,0,1.57.51,1.57,1.09s.74,1.31,1.79,1.67c1.47.66,1.47.8-.52,2a4.36,4.36,0,0,0-2.32,3.35c0,1.16-.52,2-1.15,2s-.95.73-.74,1.82c.53,1.82-.63,13.75-1.79,18.33-.73,2.77-2.84,3.13-4.52.73-.94-1.31-1.15-.8-1.15,3.06C0,510.82,0,510.89,2.14,509.58ZM3.83,450a1.29,1.29,0,0,1,1.57-.72c1.47.58,1.16,2.25-.63,2.76S2.77,451.82,3.83,450Zm3,133.42c1.37-.73,1.58-.66,1.58.58,0,1.6-1.37,2.62-2.52,1.82S5.19,584.36,6.87,583.42ZM5.93,441.78a1.11,1.11,0,0,1,.1,1.39c-.31.58-.63.36-.63-.44S5.61,441.49,5.93,441.78ZM8.45,293.16c1.89,0,2.1.51,2.1,5.24-.1,5.75-1.57,5.6-2.62-.22a12,12,0,0,0-1.06-3.49C5.72,294,6.45,293.16,8.45,293.16ZM8.66,270a2.47,2.47,0,0,1,1.68,1.67c.42,1.1.21,1.17-1.26.3C7.08,270.76,6.87,269.67,8.66,270Zm1.26-9.16c-.31-.66-.1-1.17.53-1.17s1.15,1.67,1.15,4.51c-.1,4.44-.1,4.51-1.47,2.4-.84-1.38-1.05-2.62-.52-3.42A2.37,2.37,0,0,0,9.92,260.87ZM11.6,644.52c1.27,1.39,1.27,2.19.11,2.19s-2.1-2.26-1.47-2.91C10.45,643.65,11.08,643.94,11.6,644.52Zm-1-22.55c.53,0,1,.15,1,.29s-.52.59-1,.8-1.05.08-1.05-.29S9.92,622,10.55,622Zm2.11,31.28a17.66,17.66,0,0,1,.84,5.46l-.11,3.64-.73-2.91a36,36,0,0,1-.84-5.46C11.82,651.73,11.92,651.65,12.66,653.25ZM319.4,14a2,2,0,0,1,2.21-.29c1.15.51,1.15.87,0,2.18a5.55,5.55,0,0,1-2.21,1.53C318.35,17.46,318.35,15.2,319.4,14Zm8.2,6.26a9.55,9.55,0,0,1,3.36-.37c1,.73-2.1,2.62-4.1,2.62C323.92,22.55,324.45,21.17,327.6,20.3Zm4.73-9.82a2.28,2.28,0,0,1,2.1.5c1.58,1.75,1.05,2.7-1.15,2.33S330.44,11.28,332.33,10.48Zm145,15c.53,0,1,.36,1,.8s-.52.51-1,.29-1.05-.58-1.05-.8S476.66,25.46,477.29,25.46ZM564.12,12c2,0,3,.37,3,1.09,0,1.17-2.94,1.82-5.36,1.17C559.18,13.53,560.76,12,564.12,12Zm19.77-3.27c1.68,0,3.78,1,3.78,1.89,0,1-2.31,1.38-3.47.51C583.36,10.62,583.15,8.73,583.89,8.73ZM1157.12,74a3.84,3.84,0,0,1,0,2.18c-.32.73-.53.3-.53-.87S1156.8,73.55,1157.12,74Zm4,80.53c1.37-1.16,1.68-1.24,2.63-.29a3.56,3.56,0,0,1,.52,3.2,17,17,0,0,0-.52,3.64c0,2-1.58,3.64-3,3.05C1159,163.31,1159.22,156.18,1161.11,154.51Zm0-13.17c1.16.3,2,7.35,1.16,9-1.27,2.19-2.21.22-2.21-4.43C1160.06,142.94,1160.48,141.2,1161.11,141.34Zm-.53-41.68c1.37,1.46,1.37,2.4,0,1.82a1.84,1.84,0,0,1-1-1.67C1159.53,98.72,1159.74,98.72,1160.58,99.66Zm3.89,144.55a8.56,8.56,0,0,1,0,3.27c-.21,1-.42.22-.42-1.6S1164.26,243.33,1164.47,244.21Zm5.79,92.75c.73.22,1.36.8,1.36,1.31s-.63,1.09-1.36,1.23-1.27-.29-1.27-1.23S1169.52,336.81,1170.26,337Zm4.2-84.61a18.07,18.07,0,0,1,4.1-2.11c1,0,2.21,8.88,1.26,9.53-.52.37-1.89,0-3.26-.8a8,8,0,0,0-3.26-1.45c-.94,0-1.89-1.16-2.1-2.4C1171.1,254.83,1172.67,253.59,1174.46,252.35Zm-1.26,43a1.27,1.27,0,0,1,1,1.38c0,1.74,3.26,3.78,3.89,2.4.95-1.89,2.63-.8,2.1,1.45a25.07,25.07,0,0,0,.53,7c.52,2.54.63,5.16.21,5.82a3,3,0,0,0-.53,1.82c.11.36.42,12.07.63,26,.42,20.15.21,25.46-.84,25.24-.63-.22-1.47-2-1.79-4a10.26,10.26,0,0,0-1.78-4.73c-1-.73-1.05-1.74-.21-3.71a7.78,7.78,0,0,0,.21-5.09c-1-2.4-1-8.73,0-9.75.31-.29.63-6.18.73-12.95.11-11.93-.63-17.82-2.62-20-.85-.95-2-5.24-2.53-9.68C1172.25,295.93,1172.57,295.35,1173.2,295.35Zm2.73-31.87,3.37-.21.73,7.56c.84,9.39,0,15.28-2.73,16.95-2.42,1.53-2.63.87-.32-1.53,1.47-1.52,1.47-1.74,0-2.32-2.2-.88-4.62-9-4.41-15.14l.1-5.09Zm0,29.18A1.09,1.09,0,0,1,1176,294c-.32.58-.63.36-.63-.44S1175.62,292.36,1175.93,292.66Zm.42-191.18c.53.22,1.05.73,1.05,1.16s-.52.66-1.05.66a1.08,1.08,0,0,1-1-1.17C1175.3,101.55,1175.72,101.26,1176.35,101.48Zm2.84,268.36c.74.51.53,5.6-.31,6.18-.21.15-.43-1.24-.43-3.2S1178.77,369.55,1179.19,369.84Z"/><path d="M1176.77,257.52c1,0,1.68-.51,1.68-1.16s-.52-1-1.26-.88C1175.3,255.92,1175,257.52,1176.77,257.52Z"/><path d="M1.72,493.43c1.48,1,3.68.51,3.37-.8A2,2,0,0,0,3.3,491.4C1.62,491.4.67,492.71,1.72,493.43Z"/><path d="M4.14,637.61c1.26.51,2.52-.87,1.68-1.81s-2.62-.3-2.62.72C3.2,636.89,3.62,637.32,4.14,637.61Z"/><path d="M6.56,634.2c2,1.38,3.15,1,2.73-.73a2.63,2.63,0,0,0-2.21-1.89C5,631.29,4.67,632.89,6.56,634.2Z"/><path d="M6.87,478.67a1.46,1.46,0,1,0,0-2.91,1.46,1.46,0,1,0,0,2.91Z"/><path d="M15,8.87c1.37,0,3.15,0,4-.07s2.74-.29,4.21-.36c5.25-.37,2.42-1.46-4-1.6-4.83-.07-6.51.22-6.51.94C12.66,8.29,13.71,8.8,15,8.87Z"/><path d="M23.69,718c1,0,1.58-.51,1.37-1.31a1.39,1.39,0,0,0-2.73.14C22.12,717.56,22.64,718,23.69,718Z"/><path d="M30.74,8c2,0,2.1-.14.84-.73-2-.94-3.16-.94-3.16,0C28.42,7.64,29.48,8,30.74,8Z"/><path d="M40.2,717.63c3.36,0,5-.94,5-2.61s-1.36-1.75-4.73-.22S37.15,717.71,40.2,717.63Z"/><path d="M39.88,17a25.23,25.23,0,0,0,2.74-4.29,24.28,24.28,0,0,1,2.94-4.58C46.82,7.06,45.77,7,43,8c-1.06.44-2,1.31-2,2,0,1.09-.21,1.09-1,.14-.74-.8-1.05.15-1.05,3.21C38.94,15.93,39.36,17.46,39.88,17Z"/><path d="M40,8.37c.52-.22,1-.59,1-.8s-.53-.3-1-.3-1.05.37-1.05.8S39.36,8.58,40,8.37Z"/><path d="M51.87,14.48a15,15,0,0,1,4.41.14c2,.73,18.19.73,18.82,0,1.15-1.31-1.58-1.67-14.19-2-11.25-.36-12.51-.21-12.51.88C48.4,14.4,49.24,14.62,51.87,14.48Z"/><path d="M54.7,8.37c.53-.22,1.06-.59,1.06-.8s-.53-.3-1.06-.3-1.05.37-1.05.8S54.07,8.58,54.7,8.37Z"/><path d="M77.83,14.91c1.37.58,3.37-.29,2.63-1.16s-3.68-.87-3.68,0A1.43,1.43,0,0,0,77.83,14.91Z"/><path d="M85.08,6.18c1.79.73,3.58-2.47,2.21-3.71a2.74,2.74,0,0,0-2.21-.58C83.82,2.4,83.93,5.6,85.08,6.18Z"/><path d="M95.18,718.73c2.31,0,2.62-.3,2.62-2.7v-2.76l-2.62,2c-1.48,1.09-2.63,2.33-2.63,2.77S93.7,718.73,95.18,718.73Z"/><path d="M95.39,11.93c.84.58,4.1-5.16,5-9C101.17.07,101.06,0,97.91,0H94.65V5.67C94.65,8.8,95,11.64,95.39,11.93Z"/><path d="M107,14.55c1.68,0,4.73.22,6.94.44,3.36.43,3.89.29,3.26-.73s-1.69-1.24-4.63-1.09c-2.21.14-4.62-.15-5.46-.66-1.69-.94-3-.51-3,1.09C104.11,14.19,105.27,14.55,107,14.55Z"/><path d="M138.91,7a2.91,2.91,0,0,0,2.31-.36c.84-.58.53-.8-1.16-.8C137.54,5.82,137.12,6.18,138.91,7Z"/><path d="M316.46,22.19a.78.78,0,1,0,0-1.46c-.63.22-1,.58-1,.73S315.83,22,316.46,22.19Z"/><path d="M354.83,8.29c1.36.37,1.47.73.52,1.89-1.57,2,.53,4.15,2.74,2.84A2.89,2.89,0,0,0,358,8c-.84-.51-1.58-.65-1.58-.29s-.73-.07-1.57-.87c-1.26-1.17-1.47-1.24-1.58-.22A2.1,2.1,0,0,0,354.83,8.29Z"/><path d="M382,11.93a4.33,4.33,0,0,0,2.94,1.16c3.16-.36,4.21.08,5.15,1.9,1.26,2.18,3.16,1.67,3.16-1,0-1.31-.42-1.75-1.48-1.46a1.8,1.8,0,0,1-2.2-.94,3.8,3.8,0,0,0-2.21-1.75c-1.26-.29-1.37-.72-.42-1.89,2.21-2.76-1.37-4-4.52-1.6C380.27,8,380.06,10.18,382,11.93Z"/><path d="M454.17,21.1a1.15,1.15,0,0,0,1.05-1.17.71.71,0,0,0-1.05-.65,1.44,1.44,0,0,0-1.05,1.16C453.12,20.81,453.54,21.1,454.17,21.1Z"/><path d="M463.63,12.37a8.34,8.34,0,0,0,3.47.58,15.47,15.47,0,0,1,3.68.44,21,21,0,0,0,6.09.07l3.68-.44-2.42-1.31a11.06,11.06,0,0,0-5.36-1.16c-1.57.14-2.83,0-2.83-.29s-1.9-.37-4.21-.22C461.1,10.33,460.37,11.13,463.63,12.37Z"/><path d="M512.72,17.68a7.16,7.16,0,0,0,3.15.51c1.9,0,2.42-.37,2.42-1.82,0-1.82-1.37-2.26-4.62-1.38C512,15.42,511.46,16.88,512.72,17.68Z"/><path d="M524,17.1c1.15,1.09,1.89,1.23,2.73.65,2-1.31.84-4.29-1.58-4.29C522.5,13.46,522,15.2,524,17.1Z"/><path d="M535.32,13.17c5.36,1.09,10.62-.59,10.09-3.2-.42-2-4.52-1.82-8,.43C535.43,11.71,534.48,13,535.32,13.17Z"/><path d="M550,16.59c1.89-.44,2.21-2,.42-2-1,0-1.68.51-1.68,1.16S549.3,16.73,550,16.59Z"/><path d="M551,9.46c.53,0,.74-.37.42-.73A1.71,1.71,0,0,0,550.25,8c-.21,0-.42.29-.42.73S550.35,9.46,551,9.46Z"/><path d="M842.7,5.09c1.78,0,1.47-1.6-.42-2-.74-.15-1.27.21-1.27.87S841.75,5.09,842.7,5.09Z"/><path d="M920,16.37a2,2,0,0,0,1.68.07c.84-.58-.52-2.62-1.78-2.62S918.49,15.79,920,16.37Z"/><path d="M956.65,719.82c.52.21,1.05-.22,1.05-1.09s-.53-1.31-1.05-1.1a1.1,1.1,0,0,0,0,2.19Z"/><path d="M1095.93,14.26c1,.29,4.31.22,7.68-.07s8.72-.66,12-.66c6.1-.07,7.89-.51,6.73-1.75-.74-.8-11.88-1-21.44-.43-4.63.36-6.52.73-6.52,1.45S1095.09,14,1095.93,14.26Z"/><path d="M1114.86,4.66c.94.21,1.57,0,1.57-.66s-.73-1.09-1.57-1.09-1.58.29-1.58.65S1114,4.36,1114.86,4.66Z"/><path d="M1124.53,3.86c1,.8,6.62.58,6.62-.22,0-.44-1.68-.73-3.68-.73C1123.69,2.91,1123.27,3.06,1124.53,3.86Z"/><path d="M1133.25,4.36c.53,0,1-.36,1-.72s-.52-.73-1-.73-1,.29-1,.73S1132.62,4.36,1133.25,4.36Z"/><path d="M1138.93,4.36c1.68,0,2.73-.36,2.73-1.09s-.63-1.09-1.47-1.09a5.4,5.4,0,0,0-2.73,1.09C1136.3,4.22,1136.62,4.36,1138.93,4.36Z"/><path d="M1138.51,12.37c.52,0,1-.37,1-.73s-.53-.73-1-.73-1,.29-1,.73S1137.88,12.37,1138.51,12.37Z"/><path d="M1145.87,4.36a12.59,12.59,0,0,1,4,.8c2.21,1,8-.36,7.26-1.74a2,2,0,0,0-1.9-.58,51,51,0,0,1-6.51.14c-2.84-.07-5,.15-5,.66C1143.76,4,1144.71,4.36,1145.87,4.36Z"/><path d="M1166.89,50.56c.63-.29.84-.8.53-1.17-1-1-1.58-.8-1.58.51A.71.71,0,0,0,1166.89,50.56Z"/><path d="M1168.68,214.74a1.09,1.09,0,0,0-.11-1.38c-.31-.29-.63.15-.52.95S1168.36,215.33,1168.68,214.74Z"/><path d="M1173.2,177.5a4.82,4.82,0,0,1,1,2.69,3,3,0,0,0,1.79,2.33c1.15.43,1.89,1.67,2,3.49.11,1.53.64,4.87,1.16,7.49.84,4.37,1,4.51,1.79,2.4a6.38,6.38,0,0,0,.21-3.63c-1.47-3.42-1.58-21-.11-28.59,1.16-6.55,1.26-9.31.32-14.41l-1.26-6.33-1,3.21a8.87,8.87,0,0,0,.21,6c1.47,3.27,1.47,7.71.11,8.29-.53.22-1.06,3.35-1.06,6.91,0,6.48-.52,8.73-2.1,8.73-.52,0-1.26-.65-1.57-1.45a2.35,2.35,0,0,0-1.69-1.46C1171.83,173.13,1171.94,176.12,1173.2,177.5Z"/><path d="M1177.4,137.13c.53-.22,1-.59,1-.8s-.52-.3-1-.3-1.05.37-1.05.8S1176.77,137.34,1177.4,137.13Z"/><path d="M1178.14,119.88a2.67,2.67,0,0,0,2.21-1.52c.52-1.68-1-1.53-2.74.29C1176.35,120,1176.46,120.1,1178.14,119.88Z"/><path d="M1179.51,138.58a.78.78,0,1,0,0-1.45c-.63.21-1.06.58-1.06.72S1178.88,138.36,1179.51,138.58Z"/><path d="M1179.61,74.42c.84-.58.84-1.17,0-2.18-.94-1.17-1-1-1.16.8C1178.45,74.64,1178.77,75,1179.61,74.42Z"/></g></g></g></svg>